<svg width="161" height="26" viewBox="0 0 161 26" fill="none" xmlns="http://www.w3.org/2000/svg">
<path d="M53.7104 0.0553144C52.0937 0.0514232 50.3501 0.19608 48.5236 0.520906C46.5926 0.867406 46.6682 2.01789 47.0633 2.97077C47.4584 3.92364 47.9775 4.23878 49.5443 3.84377C50.2005 3.66706 50.9186 3.49765 51.6642 3.36598C51.6642 3.68823 51.5746 6.3147 51.3582 10.296C51.128 14.5579 51.9628 18.0881 54.4813 17.6827C56.9998 17.2773 55.0548 15.0391 54.323 10.1674C56.3936 9.40914 58.3857 8.4483 60.2708 7.29865C61.1023 6.76158 65.3903 3.89239 62.0713 1.90677C60.2099 0.791904 57.2672 0.0637343 53.7104 0.0551758L53.7104 0.0553144ZM56.6839 2.86657C64.3597 2.76262 61.9271 5.91633 54.1345 8.70579C53.9316 6.82117 53.865 4.92415 53.9352 3.02977C54.8079 2.93968 55.7219 2.87707 56.6839 2.86668L56.6839 2.86657ZM96.6158 4.32905C96.1718 4.32327 96.2684 4.71775 96.7675 5.30288C98.0937 6.8656 97.554 9.84515 94.661 11.6955C90.8815 14.121 87.6208 13.5319 87.3322 12.042C87.2932 11.826 87.2794 11.6061 87.2913 11.3869C88.5179 11.3869 89.353 11.3558 92.0672 10.4272C95.2625 9.3323 96.1899 7.09086 94.4924 5.84685C92.7951 4.60292 88.5968 5.41716 86.171 8.67772C83.7453 11.9383 84.7968 15.5658 88.1125 16.0336C89.0994 16.1426 90.098 16.0241 91.033 15.6871C93.2227 14.91 95.1895 13.6024 96.7606 11.879C96.2452 14.0758 95.9015 15.9958 97.6813 16.5363C100.897 17.5065 98.0421 11.5363 101.289 7.50309C101.741 6.9263 102.315 6.45801 102.969 6.13206C103.622 5.80611 104.339 5.63063 105.068 5.6183C106.676 5.65988 105.103 4.0173 102.842 4.58556C101.416 4.98371 100.128 5.77573 99.1242 6.87232C99.1242 6.87232 98.406 4.68597 96.8392 4.3568C96.7533 4.33904 96.6792 4.32988 96.6157 4.32905L96.6158 4.32905ZM74.3276 5.25351C73.7083 5.20945 73.7917 5.5865 74.2517 5.97156C75.1416 6.73039 75.3547 7.41636 74.7637 10.1053C74.0663 13.1718 73.5577 14.9528 72.3036 14.7207C71.0495 14.4885 71.0879 12.8215 71.4761 11.1549C71.8644 9.48819 71.7196 8.22693 70.3246 7.94973C68.9296 7.67253 68.8849 8.77786 66.8887 11.0682C64.8924 13.3586 62.5323 15.0564 61.6115 14.4987C60.6907 13.941 62.4221 9.39477 67.5484 7.28459C69.6855 6.40794 69.3934 5.6946 68.2355 5.50403C65.4868 5.05704 59.7729 7.85624 59.6458 13.293C59.5737 16.2902 62.474 17.8221 68.0435 12.0599C68.0435 12.0599 68.5106 14.5995 70.3969 15.5939C72.2832 16.5884 73.3171 15.708 73.9596 15.6318C74.6021 15.5556 76.0525 17.0184 76.9459 13.8479C77.8392 10.6774 80.0553 7.00797 81.1583 7.2124C82.2612 7.41684 78.3201 11.9349 81.1066 15.0187C82.5291 16.5883 84.9964 16.3872 84.2472 15.6041C83.4611 14.7919 82.9315 13.7629 82.7253 12.6472C82.5191 11.5314 82.6457 10.3791 83.0889 9.33589C84.1644 6.54657 84.3914 5.40693 81.9313 5.74304C79.4712 6.07914 77.6292 8.87914 77.6292 8.87914C77.6292 8.87914 77.6399 5.92346 74.6369 5.29979C74.5188 5.2751 74.416 5.26007 74.3276 5.25377L74.3276 5.25351ZM110.109 5.81522C108.753 5.83147 106.835 6.35662 105.248 7.72097C102.428 10.1465 101.775 14.4296 103.414 15.767C105.053 17.1045 108.568 15.3826 111.09 12.2085C111.09 12.2085 111.388 15.1882 113.237 15.9403C113.838 16.1863 114.405 16.1173 114.099 15.6391C113.412 14.617 112.873 12.8321 113.375 10.6007C113.88 8.31032 113.976 7.37865 112.687 7.72515C112.546 7.76248 112.41 7.82087 112.285 7.8984C110.777 8.69188 110.481 10.8052 107.884 13.196C105.118 15.7428 103.249 14.6756 105.571 10.9715C107.829 7.35755 111.725 7.57255 111.832 6.54674C111.878 6.09802 111.164 5.80252 110.109 5.81517L110.109 5.81522ZM91.8874 7.14301C94.4621 7.05136 94.588 8.63025 91.776 9.5333C90.4188 10.0148 88.9797 10.2176 87.5436 10.1295C87.8785 9.35537 88.4022 8.6793 89.066 8.16431C89.7298 7.64932 90.5121 7.31217 91.3399 7.18427C91.5332 7.16262 91.7159 7.1491 91.8876 7.14299L91.8874 7.14301ZM99.6243 20.1226C99.4342 20.1246 99.2489 20.1835 99.0919 20.2916C98.9349 20.3998 98.8132 20.5525 98.7422 20.7303C98.6712 20.9082 98.6541 21.1033 98.6929 21.291C98.7318 21.4787 98.8249 21.6506 98.9606 21.7849C99.0962 21.9193 99.2683 22.0101 99.4551 22.0458C99.6419 22.0816 99.835 22.0608 100.01 21.986C100.185 21.9111 100.334 21.7857 100.439 21.6254C100.543 21.4652 100.598 21.2773 100.597 21.0856C100.597 20.9576 100.571 20.831 100.522 20.713C100.473 20.595 100.401 20.488 100.311 20.3984C100.22 20.3087 100.113 20.2382 99.9951 20.1908C99.8772 20.1434 99.7511 20.1202 99.6243 20.1226V20.1226ZM99.5706 20.2721C99.6793 20.2677 99.7877 20.2854 99.8895 20.3243C99.9912 20.3632 100.084 20.4224 100.163 20.4983C100.241 20.5743 100.303 20.6655 100.346 20.7664C100.389 20.8673 100.411 20.9759 100.411 21.0856C100.415 21.1918 100.398 21.2979 100.36 21.3972C100.322 21.4965 100.265 21.587 100.191 21.6631C100.117 21.7393 100.029 21.7996 99.9318 21.8403C99.8344 21.8809 99.7297 21.9012 99.6243 21.8997C99.4111 21.9054 99.2044 21.8259 99.0492 21.6785C98.8939 21.5311 98.8028 21.3277 98.7958 21.1128C98.7887 20.8979 98.8662 20.6889 99.0113 20.5314C99.1565 20.3739 99.3575 20.2806 99.5706 20.2721L99.5706 20.2721ZM95.0081 20.3953C94.9857 20.3951 94.9633 20.3953 94.941 20.396H93.725V25.0533H94.941C95.3033 25.0699 95.6623 24.9768 95.9717 24.786C96.3256 24.5538 96.4804 24.2147 96.4804 23.4697V21.9937C96.4804 21.2452 96.3153 20.9089 95.9717 20.6733C95.6821 20.4927 95.3486 20.3964 95.0081 20.3952L95.0081 20.3953ZM67.1104 20.396V25.0533L68.2512 25.0079C69.3369 25.0079 69.9208 24.5473 69.9208 23.6707C69.9188 23.4137 69.8272 23.1656 69.6621 22.9699C69.4969 22.7741 69.2688 22.6432 69.0176 22.6V22.579C69.2444 22.5201 69.4445 22.385 69.585 22.1961C69.7255 22.0071 69.7981 21.7756 69.7906 21.5395C69.7906 20.8465 69.2578 20.3958 68.227 20.3958L67.1104 20.396ZM73.8413 20.396V25.0533H74.5285V23.0467H75.1022L75.9988 25.0533H76.7309L75.7619 22.9499C76.0238 22.8771 76.2518 22.7134 76.4059 22.4878C76.5599 22.2621 76.6301 21.9889 76.6041 21.7162C76.6041 20.9955 76.2737 20.3958 74.9405 20.3958L73.8413 20.396ZM80.634 20.396V25.0533H83.0392V24.5782H81.3212V22.8701L82.6989 22.8599V22.3781H81.3246V20.8709H82.9949V20.3958L80.634 20.396ZM87.8635 20.4068L86.7878 25.0534H87.4958L87.7259 23.9685H88.9352L89.1761 25.0534H89.8633L88.7943 20.4068H87.8635ZM99.2363 20.5455V21.6608H99.4081V21.1756H99.5973L99.8926 21.6608H100.095L99.7758 21.1688C99.8157 21.1699 99.8553 21.1625 99.8921 21.1472C99.9289 21.1319 99.9622 21.1089 99.9897 21.0799C100.017 21.0508 100.038 21.0162 100.052 20.9784C100.065 20.9406 100.071 20.9003 100.068 20.8602H100.054C100.054 20.6454 99.927 20.5455 99.6624 20.5455L99.2363 20.5455ZM99.4081 20.687H99.6383C99.8307 20.687 99.8859 20.746 99.8859 20.8535C99.8859 20.9609 99.817 21.0335 99.6074 21.0335H99.4081V20.687ZM94.8906 20.8805C95.0898 20.882 95.2856 20.9334 95.4603 21.0301C95.5841 21.1245 95.6811 21.2501 95.7414 21.3944C95.8017 21.5386 95.8233 21.6964 95.8039 21.8517V23.6119C95.8236 23.7667 95.8022 23.9239 95.7418 24.0676C95.6815 24.2112 95.5843 24.3361 95.4603 24.4295C95.2729 24.5351 95.0602 24.5866 94.8456 24.5783H94.4161V20.8812H94.8456C94.8606 20.8807 94.8756 20.8804 94.8906 20.8805L94.8906 20.8805ZM74.5188 20.8812H74.8624C75.6974 20.8812 75.8932 21.2587 75.8932 21.7265V21.7475C75.8932 22.2395 75.6597 22.586 74.9725 22.586H74.5289L74.5188 20.8812ZM67.7979 20.892H68.1757C68.7907 20.892 69.0964 21.1583 69.0964 21.6087C69.0979 21.7172 69.0766 21.8247 69.0341 21.9244C68.9916 22.024 68.9288 22.1135 68.8498 22.1871C68.7707 22.2606 68.6772 22.3165 68.5752 22.3512C68.4733 22.3859 68.3653 22.3986 68.2582 22.3884H67.7979V20.892ZM88.3174 21.1241H88.3483C88.3654 21.2731 88.4234 21.543 88.4543 21.7474L88.8328 23.4799H87.8396L88.2074 21.7474C88.256 21.542 88.2927 21.3339 88.3174 21.1241H88.3174ZM67.7979 22.8804H68.265C68.8594 22.8804 69.2031 23.1784 69.2031 23.6877C69.2031 24.2733 68.9078 24.5783 68.1932 24.5783L67.7979 24.5892V22.8804Z" fill="#282E3E"/>
</svg>
