<svg width="166" height="31" viewBox="0 0 166 31" fill="none" xmlns="http://www.w3.org/2000/svg">
<path d="M24.5695 7.84487L24.3518 6.77059L24.2233 6.15173L23.3197 1.7936L23.102 0.719316C23.051 0.510716 22.9304 0.325766 22.7602 0.195021C22.59 0.0642759 22.3803 -0.00444132 22.1657 0.000222695L18.0745 0.196339C17.9781 0.198613 17.8835 0.222175 17.7974 0.265336C17.7113 0.308498 17.6357 0.37019 17.5762 0.445995C17.5167 0.521799 17.4747 0.60984 17.4532 0.703806C17.4316 0.797773 17.4311 0.895341 17.4517 0.98952L17.9329 3.31241L19.1871 9.35496C19.2063 9.45228 19.2456 9.54451 19.3025 9.62574C19.3594 9.70698 19.4327 9.77543 19.5175 9.82671C19.6024 9.87799 19.697 9.91097 19.7953 9.92354C19.8936 9.93612 19.9935 9.92801 20.0885 9.89973L23.9925 8.8102C24.1906 8.74855 24.3589 8.61598 24.4654 8.43788C24.5718 8.25977 24.6089 8.04863 24.5695 7.84487V7.84487Z" fill="#231F20"/>
<path d="M18.6231 26.3758L19.6573 26.7397L20.2539 26.9576L24.4388 28.435L25.4709 28.7989C25.6749 28.8603 25.8936 28.8507 26.0914 28.7715C26.2892 28.6923 26.4543 28.5483 26.5596 28.3631L28.5192 24.7589C28.5671 24.6753 28.5959 24.5822 28.6037 24.4862C28.6114 24.3901 28.5978 24.2936 28.5639 24.2035C28.53 24.1133 28.4766 24.0318 28.4075 23.9647C28.3384 23.8976 28.2554 23.8466 28.1643 23.8154L25.926 23.0265L20.1124 20.9739C20.0193 20.9397 19.92 20.9254 19.821 20.932C19.722 20.9386 19.6255 20.9658 19.5377 21.012C19.4499 21.0582 19.3728 21.1223 19.3112 21.2002C19.2497 21.2781 19.2052 21.368 19.1805 21.4641L18.1027 25.3865C18.0533 25.5865 18.079 25.7978 18.1749 25.9802C18.2708 26.1625 18.4303 26.3033 18.6231 26.3758Z" fill="#231F20"/>
<path d="M13.8329 4.74846L12.7899 4.39545L12.1912 4.1928L7.99972 2.76333L6.96329 2.41032C6.75933 2.34887 6.54057 2.35852 6.34279 2.43769C6.14502 2.51686 5.97996 2.66086 5.87461 2.84614L3.96723 6.47211C3.92036 6.55622 3.89264 6.64966 3.88605 6.74574C3.87947 6.84182 3.89417 6.93818 3.92912 7.02791C3.96407 7.11764 4.0184 7.19854 4.08823 7.26481C4.15805 7.33109 4.24164 7.3811 4.33303 7.41128L6.5779 8.17614L12.4154 10.1634C12.5091 10.1961 12.6085 10.2088 12.7073 10.2009C12.8062 10.193 12.9023 10.1645 12.9895 10.1174C13.0768 10.0702 13.1533 10.0054 13.2141 9.92706C13.275 9.8487 13.3189 9.75852 13.343 9.66226L14.3772 5.73994C14.4249 5.53657 14.3957 5.32274 14.2952 5.13967C14.1947 4.95659 14.03 4.81724 13.8329 4.74846V4.74846Z" fill="#231F20"/>
<path d="M7.88432 23.0157L8.10205 24.0899L8.22834 24.711L9.12324 29.0691L9.34098 30.1434C9.39153 30.3518 9.51168 30.5367 9.68155 30.6675C9.85141 30.7982 10.0608 30.867 10.2751 30.8625L14.3685 30.6729C14.4646 30.6706 14.559 30.647 14.6449 30.604C14.7309 30.561 14.8063 30.4995 14.8657 30.4239C14.9252 30.3484 14.9673 30.2606 14.989 30.167C15.0107 30.0733 15.0115 29.9759 14.9912 29.8819L14.5318 27.5481L13.2885 21.5056C13.2698 21.4081 13.231 21.3157 13.1744 21.2342C13.1178 21.1528 13.0448 21.084 12.9601 21.0325C12.8754 20.981 12.7808 20.9478 12.6825 20.9351C12.5842 20.9223 12.4843 20.9304 12.3893 20.9586L8.48527 22.0482C8.28237 22.105 8.10812 22.2359 7.99687 22.415C7.88563 22.5941 7.84547 22.8084 7.88432 23.0157V23.0157Z" fill="#231F20"/>
<path d="M5.82239 12.4165L4.99063 13.1312L4.50943 13.5431L1.13669 16.4347L0.304933 17.1494C0.146573 17.2942 0.0426538 17.4889 0.0105515 17.7011C-0.0215508 17.9133 0.0201086 18.1301 0.128565 18.3152L2.27545 21.8017C2.32388 21.8852 2.39014 21.9568 2.4695 22.0115C2.54886 22.0663 2.63934 22.1028 2.73445 22.1184C2.82957 22.134 2.92696 22.1284 3.01964 22.1019C3.11232 22.0754 3.19799 22.0287 3.27051 21.9652L5.07119 20.4202L9.74165 16.4064C9.81743 16.3425 9.87906 16.2636 9.92261 16.1745C9.96616 16.0855 9.99066 15.9883 9.99456 15.8893C9.99845 15.7902 9.98165 15.6914 9.94522 15.5992C9.9088 15.5071 9.85355 15.4235 9.78302 15.3539L6.93502 12.4644C6.78667 12.3232 6.59223 12.2406 6.38768 12.2317C6.18313 12.2229 5.98231 12.2886 5.82239 12.4165V12.4165Z" fill="#231F20"/>
<path d="M26.5683 18.9626L27.4001 18.2587L27.8791 17.8469L31.2475 14.9553L32.0792 14.2405C32.2369 14.0954 32.3403 13.9007 32.3724 13.6887C32.4045 13.4767 32.3633 13.2601 32.2556 13.0747L30.1065 9.58823C30.0581 9.50483 29.9919 9.43318 29.9125 9.37843C29.8331 9.32368 29.7427 9.28719 29.6475 9.27157C29.5524 9.25595 29.455 9.26159 29.3624 9.28808C29.2697 9.31457 29.184 9.36126 29.1115 9.4248L27.313 10.9698L22.6316 14.988C22.5559 15.0518 22.4942 15.1308 22.4507 15.2198C22.4071 15.3088 22.3826 15.406 22.3787 15.5051C22.3748 15.6041 22.3916 15.7029 22.4281 15.7951C22.4645 15.8873 22.5197 15.9708 22.5903 16.0404L25.4404 18.9125C25.5894 19.0581 25.7868 19.1438 25.9948 19.153C26.2029 19.1623 26.407 19.0945 26.5683 18.9626V18.9626Z" fill="#231F20"/>
<path d="M55.3466 18.5224L58.273 20.2308C56.6879 23.312 53.8225 25.1729 50.0121 25.1729C46.9637 25.1729 44.4946 24.1052 42.5742 21.9697C40.6537 19.8342 39.7087 17.2106 39.7087 14.0684C39.7087 10.9262 40.6537 8.30258 42.5742 6.1671C44.4946 4.03161 46.9746 2.96387 50.0229 2.96387C53.8333 2.96387 56.6988 4.8553 58.2839 7.9365L55.3575 9.64489C54.3211 7.32636 52.553 6.15838 50.0229 6.15838C47.9501 6.15838 46.304 6.92105 45.0847 8.41589C43.8653 9.91073 43.2557 11.8022 43.2557 14.0597C43.2557 16.3172 43.8653 18.1999 45.0847 19.7035C46.304 21.207 47.9392 21.9632 50.0229 22.0002C52.5422 21.9632 54.3102 20.8104 55.3466 18.5224Z" fill="#231F20"/>
<path d="M75.9532 18.0647H63.5226C63.8579 20.8713 65.3516 22.2049 68.278 22.2049C70.4118 22.2049 71.9055 21.4423 72.7895 19.9474L75.2586 21.4118C73.9522 23.6388 71.3263 25.1641 68.278 25.1641C65.8088 25.1641 63.8579 24.4319 62.4252 22.9371C60.9925 21.4423 60.2914 19.3983 60.2914 16.8357C60.2914 14.3952 61.023 12.3817 62.4557 10.8258C63.8884 9.26999 65.8698 8.47681 68.278 8.47681C70.5642 8.47681 72.3932 9.20897 73.765 10.7038C75.1367 12.1987 75.8683 14.1206 75.9597 16.5306L75.9532 18.0647ZM72.9354 15.1055C72.5391 12.787 70.7101 11.3532 68.2714 11.3532C65.9242 11.3532 64.1344 12.6955 63.6075 15.1055H72.9354Z" fill="#231F20"/>
<path d="M93.6639 24.8983H90.3413V15.0446C90.3413 12.3295 89.0349 11.3532 87.5368 11.3532C84.1837 11.3532 82.5071 13.6413 82.5071 18.2478V24.8983H79.1844V8.76016H82.5071L83.1777 10.377C84.519 9.12624 86.0432 8.4856 87.7197 8.4856C91.6825 8.4856 93.6639 10.5906 93.6639 14.831V24.8983Z" fill="#231F20"/>
<path d="M112.137 22.7627C112.137 28.2235 109.18 30.664 104.425 30.664C100.98 30.664 98.4498 29.9013 96.8342 28.3455L98.968 25.8439C100.274 27.0947 102.077 27.7353 104.364 27.7353C107.412 27.7353 108.814 26.1795 108.814 22.7627C108.113 24.2576 106.497 25.2948 104.272 25.2948C102.047 25.2948 100.218 24.4711 98.8461 22.8237C97.4744 21.1763 96.8364 19.1629 96.8364 16.8444C96.8063 14.7015 97.5536 12.6205 98.9397 10.987C100.342 9.30914 102.206 8.48546 104.518 8.48546C105.941 8.47679 107.313 9.01049 108.357 9.97812L108.814 8.75784H112.137V22.7627ZM107.839 20.7492C108.662 19.6815 109.058 18.4002 109.058 16.8444C109.058 15.3495 108.662 14.0987 107.839 13.031C107.016 11.9632 105.918 11.4446 104.516 11.4446C101.468 11.4446 100.161 13.7632 100.161 16.8444C100.161 18.3392 100.497 19.6205 101.198 20.7187C101.899 21.817 103.027 22.3356 104.52 22.3356C105.918 22.3356 107.016 21.817 107.839 20.7492V20.7492Z" fill="#231F20"/>
<path d="M128.811 24.8983H126.372C125.641 24.8983 125.284 24.3797 125.284 23.3729C124.064 24.5932 123.058 25.1728 120.864 25.1728C117.45 25.1728 114.919 23.5255 114.919 20.2002C115.041 17.4241 116.169 16.0818 118.303 15.5326C119.797 15.075 120.864 15.014 122.784 14.9225C124.4 14.8615 125.192 14.3429 125.192 13.3667C125.192 12.2771 123.912 11.2617 122.083 11.2617C120.315 11.2617 118.974 11.9023 118.059 13.1836L115.886 11.2856C117.258 9.45523 119.544 8.479 122.074 8.479C125.885 8.479 128.293 10.584 128.293 14.4584V23.7063C128.293 24.1421 128.476 24.347 128.811 24.347V24.8983ZM124.421 21.2679C125.001 20.4443 125.305 19.224 125.305 17.6681V16.7529C124.97 17.2105 124.086 17.4241 123.564 17.5156C123.32 17.5461 122.923 17.5461 122.375 17.5766C121.826 17.6071 121.552 17.6071 121.521 17.6071C119.326 17.6986 118.229 18.5833 118.229 20.2002C118.229 21.2679 118.991 22.5187 120.842 22.5187C122.653 22.5187 123.836 22.0916 124.421 21.2679Z" fill="#231F20"/>
<path d="M146.583 22.7627C146.583 28.2235 143.626 30.664 138.87 30.664C135.426 30.664 132.896 29.9014 131.28 28.3455L133.414 25.8439C134.72 27.0947 136.523 27.7354 138.81 27.7354C141.858 27.7354 143.26 26.1795 143.26 22.7627C142.559 24.2576 140.943 25.2948 138.718 25.2948C136.493 25.2948 134.664 24.4711 133.292 22.8237C131.92 21.1764 131.28 19.1629 131.28 16.8444C131.25 14.7015 131.997 12.6205 133.384 10.987C134.786 9.30916 136.65 8.48547 138.962 8.48547C140.385 8.47625 141.759 9.00999 142.803 9.97813L143.26 8.75785H146.583V22.7627ZM142.285 20.7493C143.108 19.6815 143.504 18.4002 143.504 16.8444C143.504 15.3495 143.108 14.0987 142.285 13.031C141.462 11.9633 140.364 11.4446 138.962 11.4446C135.914 11.4446 134.607 13.7632 134.607 16.8444C134.607 18.3392 134.943 19.6205 135.644 20.7188C136.345 21.817 137.473 22.3356 138.966 22.3356C140.364 22.3356 141.472 21.817 142.285 20.7493V20.7493Z" fill="#231F20"/>
<path d="M165.36 18.0647H152.923C153.259 20.8713 154.752 22.2049 157.679 22.2049C159.812 22.2049 161.306 21.4423 162.19 19.9474L164.659 21.4118C163.353 23.6388 160.727 25.1641 157.679 25.1641C155.209 25.1641 153.259 24.4319 151.826 22.9371C150.393 21.4423 149.692 19.3983 149.692 16.8357C149.692 14.3952 150.424 12.3817 151.856 10.8258C153.289 9.26999 155.27 8.47681 157.679 8.47681C159.965 8.47681 161.794 9.20897 163.166 10.7038C164.537 12.1987 165.269 14.1206 165.36 16.5306V18.0647ZM162.343 15.1055C161.946 12.787 160.117 11.3532 157.679 11.3532C155.331 11.3532 153.542 12.6955 153.015 15.1055H162.343Z" fill="#231F20"/>
</svg>
