<svg width="64" height="64" viewBox="0 0 64 64" fill="none" xmlns="http://www.w3.org/2000/svg">
<rect x="1" y="1" width="62" height="62" rx="14" fill="#59E8B5" stroke="#D9DDE8" stroke-width="2"/>
<path d="M30.7563 38.118H30.8158L30.8212 38.1153C31.0878 38.0999 31.3369 37.9875 31.5265 37.796L40.2283 29.004C40.2283 29.004 40.2284 29.0039 40.2284 29.0039C40.6511 28.5779 40.6507 27.8858 40.2285 27.4593C40.0241 27.2527 39.7503 27.1382 39.4601 27.1382C39.17 27.1382 38.8962 27.2527 38.6917 27.4593L30.8682 35.3639C30.8371 35.3953 30.7973 35.4105 30.7572 35.4105C30.7171 35.4105 30.6773 35.3953 30.6462 35.3639L27.7954 32.4835C27.591 32.277 27.3172 32.1624 27.027 32.1624C26.7369 32.1624 26.4631 32.277 26.2586 32.4835L26.2581 32.484C26.0546 32.6909 25.9419 32.965 25.9419 33.2562C25.9419 33.547 26.0543 33.8225 26.2586 34.0289L29.9879 37.7969C30.1924 38.0034 30.4662 38.118 30.7563 38.118Z" fill="#0A092D" stroke="#0A092D" stroke-width="0.5"/>
<path d="M32.0004 52.3709C31.8109 52.3709 31.6222 52.3423 31.4389 52.2859C14.808 47.2062 14.7168 26.0792 15.0852 19.7253C15.1454 18.6524 16.0107 17.8131 17.0539 17.8131C17.0911 17.8131 17.1292 17.814 17.1673 17.8167C17.5082 17.8346 17.8492 17.8426 18.1857 17.8426C24.5524 17.8426 29.1204 14.7538 30.788 13.4259C31.1378 13.1476 31.5576 13 31.9995 13C32.4414 13 32.8612 13.1476 33.211 13.4259C34.8795 14.7547 39.4457 17.8444 45.7893 17.8444H45.7902C46.1356 17.8444 46.4863 17.8355 46.8326 17.8167C46.8618 17.8149 46.8928 17.8149 46.9238 17.8149C47.9786 17.8149 48.8544 18.6542 48.9164 19.7262C49.2848 26.0801 49.1927 47.207 32.561 52.2868C32.3776 52.3432 32.189 52.3718 31.9995 52.3718L32.0004 52.3709ZM17.0619 19.5016C16.9609 19.5016 16.8626 19.54 16.7873 19.6089C16.7068 19.6832 16.6589 19.7861 16.6545 19.8962C16.3295 27.6478 17.1655 46.1628 31.9207 50.6717C31.9587 50.6833 31.9986 50.6896 32.0385 50.6896C32.0783 50.6896 32.1182 50.6833 32.1571 50.6717C47.5092 45.9579 47.5933 25.9235 47.2541 19.8962C47.2417 19.6769 47.062 19.5078 46.8468 19.5078C46.8406 19.5078 46.8335 19.5078 46.8273 19.5078C46.489 19.5239 46.1453 19.532 45.807 19.532C38.9878 19.532 34.055 16.2302 32.2501 14.8102C32.1766 14.752 32.088 14.7234 31.9995 14.7234C31.9109 14.7234 31.8224 14.752 31.7489 14.8102C29.944 16.2302 25.0129 19.5329 18.2158 19.5329C17.8403 19.5329 17.4595 19.523 17.0831 19.5025C17.0761 19.5025 17.069 19.5025 17.0619 19.5025V19.5016Z" fill="#0A092D" stroke="#0A092D" stroke-width="0.5"/>
</svg>
