<svg width="166" height="39" viewBox="0 0 166 39" fill="none" xmlns="http://www.w3.org/2000/svg">
<path d="M50.3816 28.6807C49.7894 28.4269 49.3664 27.9616 49.3664 27.2848C49.3664 26.481 50.0432 25.8465 50.8047 25.8465C51.0585 25.8465 51.2277 25.8888 51.3969 25.9734C52.4121 26.4387 53.512 26.7348 54.8657 26.7348C57.3192 26.7348 58.4613 25.5504 58.4613 23.3084V22.7161C57.4038 23.9852 56.2616 24.7466 54.358 24.7466C51.4392 24.7466 48.7742 22.6315 48.7742 18.909V18.8667C48.7742 15.1018 51.4815 13.029 54.358 13.029C56.3039 13.029 57.4461 13.8327 58.419 14.8903V14.8057C58.419 13.8327 59.2228 13.029 60.1957 13.029C61.1686 13.029 61.9724 13.8327 61.9724 14.8057V22.8854C61.9724 25.1274 61.4225 26.7771 60.3649 27.8347C59.1805 29.0191 57.4038 29.5268 54.9503 29.5268C53.3005 29.5691 51.8622 29.273 50.3816 28.6807V28.6807ZM58.4613 18.8667V18.8244C58.4613 17.1323 57.1077 15.9055 55.3733 15.9055C53.6389 15.9055 52.3275 17.09 52.3275 18.8244V18.8667C52.3275 20.601 53.6389 21.7855 55.3733 21.7855C57.1077 21.7855 58.4613 20.5587 58.4613 18.8667ZM63.9606 14.848C63.9606 13.875 64.7643 13.0713 65.7373 13.0713C66.7102 13.0713 67.5139 13.875 67.5139 14.848V15.3979C68.0216 14.1711 68.8676 13.0713 69.9252 13.0713C71.025 13.0713 71.6595 13.7904 71.6595 14.8057C71.6595 15.7363 71.0673 16.2862 70.3059 16.4555C68.4869 16.8785 67.5139 18.2744 67.5139 20.7703V24.1121C67.5139 25.0851 66.7102 25.8888 65.7373 25.8888C64.7643 25.8888 63.9606 25.0851 63.9606 24.1121V14.848V14.848ZM71.2788 22.1239V22.0816C71.2788 19.332 73.3516 18.0629 76.355 18.0629C77.6241 18.0629 78.5548 18.2744 79.4431 18.5706V18.359C79.4431 16.8785 78.5124 16.0747 76.7358 16.0747C75.7628 16.0747 74.9591 16.2016 74.2823 16.4132C74.0707 16.4978 73.9438 16.4978 73.7746 16.4978C72.9709 16.4978 72.2941 15.8632 72.2941 15.0595C72.2941 14.425 72.6748 13.875 73.267 13.6635C74.4092 13.2405 75.5936 12.9867 77.2857 12.9867C79.2316 12.9867 80.6275 13.4943 81.5159 14.3827C82.4465 15.3133 82.8695 16.7093 82.8695 18.4013V24.1121C82.8695 25.0851 82.1081 25.8042 81.1352 25.8042C80.1199 25.8042 79.4431 25.0851 79.4431 24.3236V24.2813C78.5971 25.2543 77.3703 25.8888 75.6359 25.8888C73.2247 25.9734 71.2788 24.6197 71.2788 22.1239ZM79.4431 21.3202V20.6857C78.8509 20.3895 78.0471 20.2203 77.1588 20.2203C75.6359 20.2203 74.7053 20.8126 74.7053 21.9547V21.997C74.7053 22.97 75.509 23.5199 76.6512 23.5199C78.3009 23.5199 79.4431 22.6315 79.4431 21.3202V21.3202ZM84.7308 14.848C84.7308 13.875 85.5346 13.0713 86.5075 13.0713C87.4805 13.0713 88.2842 13.875 88.2842 14.848V14.9749C89.0879 13.9173 90.1878 12.9444 92.0068 12.9444C93.6566 12.9444 94.8833 13.6635 95.5601 14.9326C96.66 13.6635 97.9714 12.9444 99.6634 12.9444C102.328 12.9444 103.894 14.5519 103.894 17.5553V24.1121C103.894 25.0851 103.09 25.8888 102.117 25.8888C101.144 25.8888 100.34 25.0851 100.34 24.1121V18.7398C100.34 17.0477 99.5788 16.2016 98.2675 16.2016C96.9138 16.2016 96.1101 17.09 96.1101 18.7398V24.1121C96.1101 25.0851 95.3063 25.8888 94.3334 25.8888C93.3604 25.8888 92.5567 25.0851 92.5567 24.1121V18.7398C92.5567 17.0477 91.7953 16.2016 90.4839 16.2016C89.1302 16.2016 88.3265 17.09 88.3265 18.7398V24.1121C88.3265 25.0851 87.5228 25.8888 86.5498 25.8888C85.5769 25.8888 84.7731 25.0851 84.7731 24.1121V14.848H84.7308ZM105.797 14.848C105.797 13.875 106.601 13.0713 107.574 13.0713C108.547 13.0713 109.351 13.875 109.351 14.848V14.9749C110.154 13.9173 111.254 12.9444 113.073 12.9444C114.723 12.9444 115.95 13.6635 116.627 14.9326C117.726 13.6635 119.038 12.9444 120.73 12.9444C123.395 12.9444 124.96 14.5519 124.96 17.5553V24.1121C124.96 25.0851 124.156 25.8888 123.183 25.8888C122.21 25.8888 121.407 25.0851 121.407 24.1121V18.7398C121.407 17.0477 120.645 16.2016 119.334 16.2016C117.98 16.2016 117.176 17.09 117.176 18.7398V24.1121C117.176 25.0851 116.373 25.8888 115.4 25.8888C114.427 25.8888 113.623 25.0851 113.623 24.1121V18.7398C113.623 17.0477 112.862 16.2016 111.55 16.2016C110.197 16.2016 109.393 17.09 109.393 18.7398V24.1121C109.393 25.0851 108.589 25.8888 107.616 25.8888C106.643 25.8888 105.84 25.0851 105.84 24.1121V14.848H105.797ZM126.144 22.1239V22.0816C126.144 19.332 128.217 18.0629 131.221 18.0629C132.49 18.0629 133.42 18.2744 134.309 18.5706V18.359C134.309 16.8785 133.378 16.0747 131.601 16.0747C130.628 16.0747 129.825 16.2016 129.148 16.4132C128.936 16.4978 128.809 16.4978 128.64 16.4978C127.837 16.4978 127.16 15.8632 127.16 15.0595C127.16 14.425 127.54 13.875 128.133 13.6635C129.275 13.2405 130.459 12.9867 132.151 12.9867C134.097 12.9867 135.493 13.4943 136.382 14.3827C137.312 15.3133 137.735 16.7093 137.735 18.4013V24.1121C137.735 25.0851 136.974 25.8042 136.001 25.8042C134.986 25.8042 134.309 25.0851 134.309 24.3236V24.2813C133.42 25.2543 132.236 25.8888 130.502 25.8888C128.09 25.9734 126.144 24.6197 126.144 22.1239ZM134.309 21.3202V20.6857C133.717 20.3895 132.913 20.2203 132.024 20.2203C130.502 20.2203 129.571 20.8126 129.571 21.9547V21.997C129.571 22.97 130.375 23.5199 131.517 23.5199C133.209 23.5199 134.309 22.6315 134.309 21.3202V21.3202ZM139.596 14.848C139.596 13.875 140.4 13.0713 141.373 13.0713C142.346 13.0713 143.15 13.875 143.15 14.848V15.3979C143.657 14.1711 144.504 13.0713 145.561 13.0713C146.661 13.0713 147.295 13.7904 147.295 14.8057C147.295 15.7363 146.703 16.2862 145.942 16.4555C144.123 16.8785 143.15 18.2744 143.15 20.7703V24.1121C143.15 25.0851 142.346 25.8888 141.373 25.8888C140.4 25.8888 139.596 25.0851 139.596 24.1121V14.848ZM148.395 10.2794C148.395 9.30642 149.199 8.50269 150.172 8.50269C151.145 8.50269 151.949 9.30642 151.949 10.2794V24.1121C151.949 25.0851 151.145 25.8888 150.172 25.8888C149.199 25.8888 148.395 25.0851 148.395 24.1121V10.2794ZM154.783 29.2306C154.275 29.0614 153.641 28.6384 153.641 27.7501C153.641 26.8617 154.318 26.3118 155.037 26.3118C155.333 26.3118 155.502 26.3541 155.629 26.3964C155.925 26.481 156.137 26.5233 156.39 26.5233C157.025 26.5233 157.321 26.3964 157.659 25.7619L157.786 25.4658L153.514 15.5248C153.429 15.271 153.345 14.9326 153.345 14.7211C153.345 13.7058 154.106 13.029 155.121 13.029C156.01 13.029 156.517 13.5366 156.813 14.3827L159.521 21.7009L162.143 14.425C162.44 13.6635 162.947 13.0713 163.836 13.0713C164.766 13.0713 165.528 13.7904 165.528 14.7211C165.528 15.0172 165.443 15.3979 165.358 15.5671L160.959 26.1003C159.901 28.6384 158.844 29.6114 156.729 29.6114C155.925 29.5691 155.375 29.4422 154.783 29.2306Z" fill="#231F20"/>
<path fill-rule="evenodd" clip-rule="evenodd" d="M38.9178 19.4589C38.9178 30.2058 30.2058 38.9178 19.4589 38.9178C8.71205 38.9178 0 30.2058 0 19.4589C0 8.71205 8.71205 0 19.4589 0C30.2058 0 38.9178 8.71205 38.9178 19.4589ZM21.9971 23.6467C21.8702 22.8007 22.5047 22.0816 23.3085 22.0816H30.4152V29.569C30.4152 30.3728 29.6961 31.0496 28.85 30.8804C28.2155 30.7535 27.7925 30.1613 27.7925 29.5267V28.2577L28.0463 26.8617C25.9735 29.3152 22.8854 30.7958 19.459 30.7958C12.9022 30.7958 7.65674 25.4234 8.03746 18.782C8.37587 13.0713 12.9868 8.41804 18.6552 7.95272C23.0124 7.6566 26.9041 9.814 29.0615 13.1982C29.3999 13.7904 29.2307 14.5518 28.6808 14.9325C28.0886 15.3556 27.2849 15.1864 26.8618 14.5941V14.5518C25.2967 12.3521 22.547 10.5331 19.459 10.5331C13.4944 10.5331 8.9258 16.54 11.337 22.8007C12.3946 25.5503 14.8904 27.5385 17.8092 28.0038C21.4049 28.5961 24.6621 27.327 26.5657 24.5351L25.3813 24.7043H23.3508C22.7162 24.7043 22.124 24.2813 21.9971 23.6467Z" fill="#231F20"/>
</svg>
