<svg width="64" height="64" viewBox="0 0 64 64" fill="none" xmlns="http://www.w3.org/2000/svg">
<rect x="1" y="1" width="62" height="62" rx="14" fill="#4255FF" stroke="#D9DDE8" stroke-width="2"/>
<path d="M48.5323 49.9999H17.3745C17.0616 50.0029 16.7512 49.944 16.4615 49.8266C16.1718 49.7093 15.9088 49.5359 15.6876 49.3165C15.4665 49.0971 15.2917 48.8362 15.1737 48.549C15.0556 48.2619 14.9967 47.9543 15.0001 47.6443V15.4541C15.0001 15.0684 15.1548 14.6985 15.43 14.4258C15.7053 14.1531 16.0786 14 16.4679 14C16.8568 14.0009 17.2296 14.1543 17.5047 14.4268C17.7798 14.6993 17.9347 15.0687 17.9356 15.4541V47.0917H48.5323C48.7252 47.0913 48.9162 47.1286 49.0945 47.2015C49.2727 47.2745 49.4347 47.3816 49.5711 47.5167C49.7075 47.6518 49.8156 47.8122 49.8892 47.9888C49.9628 48.1655 50.0004 48.3547 50 48.5458C50 48.9314 49.8454 49.3013 49.5701 49.574C49.2949 49.8467 48.9216 49.9999 48.5323 49.9999ZM25.2708 42.0186V33.6172C25.27 33.2318 25.115 32.8624 24.8399 32.5899C24.5649 32.3174 24.1921 32.164 23.8031 32.1631C23.4139 32.1631 23.0405 32.3163 22.7653 32.589C22.49 32.8617 22.3354 33.2316 22.3354 33.6172V42.0186C22.3354 42.4042 22.49 42.7741 22.7653 43.0468C23.0405 43.3195 23.4139 43.4727 23.8031 43.4727C23.9963 43.4723 24.1875 43.4341 24.3658 43.3605C24.5441 43.2869 24.706 43.1791 24.8423 43.0435C24.9785 42.9079 25.0866 42.747 25.1601 42.57C25.2336 42.3931 25.2712 42.2035 25.2708 42.0121V42.0186ZM31.7091 42.0186V28.2726C31.7096 28.0816 31.6719 27.8923 31.5983 27.7157C31.5247 27.5391 31.4166 27.3786 31.2802 27.2435C31.1439 27.1084 30.9819 27.0013 30.8036 26.9284C30.6254 26.8554 30.4343 26.8181 30.2414 26.8185C29.8522 26.8185 29.4789 26.9718 29.2036 27.2445C28.9284 27.5172 28.7737 27.887 28.7737 28.2726V42.0186C28.7746 42.404 28.9295 42.7733 29.2046 43.0458C29.4796 43.3183 29.8524 43.4718 30.2414 43.4727C30.6296 43.4693 31.0005 43.3137 31.2731 43.04C31.5458 42.7663 31.6978 42.3967 31.6961 42.0121L31.7091 42.0186ZM38.1507 42.0186V21.8488C38.1499 21.4634 37.995 21.0941 37.7199 20.8215C37.4449 20.549 37.072 20.3955 36.683 20.3947C36.2938 20.3947 35.9205 20.5479 35.6452 20.8206C35.37 21.0933 35.2153 21.4631 35.2153 21.8488V42.0186C35.2153 42.4042 35.37 42.7741 35.6452 43.0468C35.9205 43.3195 36.2938 43.4727 36.683 43.4727C36.8762 43.4723 37.0674 43.4341 37.2457 43.3605C37.424 43.2869 37.5859 43.1791 37.7222 43.0435C37.8585 42.9079 37.9665 42.747 38.04 42.57C38.1135 42.3931 38.1512 42.2035 38.1507 42.0121V42.0186ZM44.5891 42.0186V17.4607C44.5895 17.2696 44.5518 17.0804 44.4782 16.9038C44.4046 16.7271 44.2965 16.5666 44.1602 16.4315C44.0238 16.2964 43.8618 16.1894 43.6835 16.1164C43.5053 16.0435 43.3142 16.0062 43.1214 16.0066C42.7321 16.0066 42.3588 16.1598 42.0835 16.4325C41.8083 16.7052 41.6537 17.0751 41.6537 17.4607V42.0186C41.6545 42.404 41.8094 42.7733 42.0845 43.0458C42.3596 43.3183 42.7324 43.4718 43.1214 43.4727C43.3147 43.4727 43.506 43.4348 43.6845 43.3614C43.863 43.2879 44.0251 43.1802 44.1615 43.0445C44.2979 42.9088 44.4058 42.7477 44.4792 42.5706C44.5526 42.3934 44.5899 42.2036 44.5891 42.0121V42.0186Z" fill="white"/>
</svg>
