<svg width="162" height="36" viewBox="0 0 162 36" fill="none" xmlns="http://www.w3.org/2000/svg">
<path fill-rule="evenodd" clip-rule="evenodd" d="M59.0542 17.495V19.2428L58.042 19.2412L58.0516 26.1173L59.0542 26.1067V27.8671H53.453L53.5922 19.2428L50.0749 27.8647H47.114L43.5664 19.2412L43.6975 27.8647H38.3054V26.1158H39.3164L39.3072 19.2404H38.3054V17.4927H46.8359L48.5856 24.3119L50.3146 17.4942L59.0542 17.495Z" fill="#231F20"/>
<path fill-rule="evenodd" clip-rule="evenodd" d="M72.1485 23.8063L70.229 18.9185L68.307 23.8047L72.1485 23.8063ZM74.0969 17.4927L77.8658 26.1065H79.0049V27.8671L73.6476 27.8663L72.6878 25.4151H67.7594L66.7888 27.8643H61.4954L61.4482 26.1065H62.5914L66.3654 17.5025L74.0969 17.4927Z" fill="#231F20"/>
<path fill-rule="evenodd" clip-rule="evenodd" d="M86.467 22.2444H89.6283C91.1526 22.2452 92.1272 21.927 92.1272 20.7966C92.128 19.7113 91.4887 19.2509 89.6283 19.2509H86.467V22.2444ZM80.601 27.8648V26.1039H81.6203V19.2509H80.601V17.4927H91.1526C92.9813 17.4916 93.5306 17.5045 95.299 18.2651C96.8844 18.9715 96.9137 19.1772 96.9442 19.9417L96.9434 21.1755C96.9442 21.7025 96.8827 21.8358 96.5776 22.0701C96.2716 22.3063 95.6636 22.5689 93.8944 23.0097C94.9939 23.2165 95.9981 23.1903 96.4864 23.427C96.9751 23.6609 97.1578 24.1699 97.1578 24.8755V26.1039H98.1576V27.8671H92.2806V25.2258C92.2806 24.7568 92.2806 24.5358 92.0673 24.3305C91.5778 23.8599 90.5711 23.8584 89.6275 23.8584H86.467V27.8648H80.601Z" fill="#231F20"/>
<path fill-rule="evenodd" clip-rule="evenodd" d="M106.936 17.4927V19.2535H105.998V26.1038H106.936V27.8671H100.552V26.1038H101.496L101.497 19.2528H100.552V17.4927H106.936Z" fill="#231F20"/>
<path fill-rule="evenodd" clip-rule="evenodd" d="M126.887 17.4927V19.2543H125.891L125.889 27.8671L119.395 27.8647L113.512 19.2527L113.65 27.8647L108.532 27.8624V26.0999H109.537L109.539 19.2527H108.532V17.4927H116.85L122.006 25.2407L121.871 17.4927H126.887Z" fill="#231F20"/>
<path fill-rule="evenodd" clip-rule="evenodd" d="M157.552 19.6822C157.376 19.3157 157.198 19.2617 156.196 19.2472H153.394C153.011 19.2464 152.584 19.2135 152.171 19.4046C151.67 19.6251 151.67 19.8428 151.67 20.8385C151.728 21.2523 151.83 21.3248 152.835 21.4716L159.881 22.367C161.974 22.6909 162 22.9524 162 24.0534V25.3146C162 26.2253 161.853 26.313 160.584 26.99C159.143 27.7653 158.403 27.8671 156.665 27.8671L147.315 27.8663L146.837 24.5374H150.766L151.327 25.7559C151.476 26.0624 151.681 26.0679 152.302 26.0977H154.011C154.542 26.0977 156.207 26.2085 156.561 26.1067C157.299 25.9019 157.299 25.638 157.299 24.5084C157.299 24.1721 157.137 24.0405 156.252 23.8929L149.411 23.0119C147.114 22.6302 146.994 22.5123 146.994 21.2668V19.8138C146.994 19.2425 147.024 19.0068 148.646 18.2453C150.121 17.555 150.916 17.4915 152.214 17.4927H161.06L161.561 20.7414L157.875 20.739L157.552 19.6822Z" fill="#231F20"/>
<path fill-rule="evenodd" clip-rule="evenodd" d="M143.537 17.4954L144.031 20.7674H140.365L140.043 19.7697C139.867 19.3143 139.779 19.2634 138.812 19.2473H134.894L134.89 21.7342H140.866V23.3044H134.89V26.0983H138.988C139.985 26.112 140.159 26.0776 140.365 25.592L140.776 24.4494H144.443L144.031 27.8671L129.281 27.8651V26.0983H130.259V19.2395H129.281V17.4927L143.537 17.4954Z" fill="#231F20"/>
<path fill-rule="evenodd" clip-rule="evenodd" d="M25.135 14.0142L24.0026 14.7138C23.944 14.7496 23.9347 14.7443 23.9146 14.6828C23.8622 14.5326 23.9419 14.2994 24.0489 14.2336L24.0485 14.2326L24.5478 13.9241C24.6034 13.8893 24.6397 13.8368 24.6289 13.8058L24.462 13.5259C24.4512 13.4949 24.4017 13.4945 24.3515 13.5255L23.4659 14.0719C23.4203 14.1001 23.3898 14.1444 23.3931 14.1764C23.3934 14.1788 23.4243 14.4658 23.4243 14.4658C23.4444 14.6218 23.4207 15.0548 23.2445 15.1883C23.2394 15.1921 23.234 15.1964 23.2294 15.2007C23.2251 15.2045 23.2211 15.2083 23.2175 15.2116C23.1637 15.2641 23.1335 15.3189 23.1454 15.3537L23.3245 15.8649C23.3421 15.9155 23.4408 15.904 23.5449 15.8401L25.3781 14.7081C25.4818 14.6437 25.5518 14.5507 25.5342 14.5006L25.3554 13.9894C25.3379 13.9394 25.2388 13.9499 25.135 14.0142Z" fill="#231F20"/>
<path fill-rule="evenodd" clip-rule="evenodd" d="M27.1355 23.6496C27.1216 23.626 27.1684 23.5858 27.2404 23.5597L28.506 23.1001C28.5779 23.074 28.6475 23.0718 28.6614 23.0958L28.7264 23.3614C28.7403 23.3846 28.6995 23.4231 28.635 23.4463L27.4974 23.8598C27.4329 23.883 27.3693 23.883 27.3554 23.8591L27.1355 23.6496Z" fill="#231F20"/>
<path fill-rule="evenodd" clip-rule="evenodd" d="M14.2403 4.72412C14.2403 4.72412 13.4927 5.41953 13.5725 6.03606C13.6085 6.31736 14.234 6.32018 14.234 6.32018L14.3646 4.84767L14.2403 4.72412Z" fill="#231F20"/>
<mask id="mask0_102_2709" style="mask-type:alpha" maskUnits="userSpaceOnUse" x="13" y="0" width="12" height="8">
<path d="M13.0797 0H24.5825V7.01158H13.0797V0Z" fill="#231F20"/>
</mask>
<g mask="url(#mask0_102_2709)">
<path fill-rule="evenodd" clip-rule="evenodd" d="M18.2637 6.8956C18.2637 6.8956 17.6121 4.20056 17.591 4.11564C17.5515 3.9589 17.4908 3.8499 17.3208 3.74639C17.2726 3.71724 16.431 3.23096 16.431 3.23096L16.0057 3.33616C16.0057 3.33616 16.3524 3.53937 16.461 3.61077C16.5687 3.68048 16.7123 3.88116 16.522 3.93651C16.3317 3.99101 16.109 4.07382 16.109 4.07382L15.7954 3.44938C15.7954 3.44938 15.1446 3.39277 14.8885 3.37714C14.6315 3.36277 14.5716 3.53768 14.5716 3.53768L14.1547 4.24915L14.3981 4.18873L15.5895 4.94541L15.0381 6.89222L15.5516 6.63704C15.6609 6.58381 15.7687 6.54325 15.979 6.6531L16.6254 7.01136L17.2394 6.67844C17.2418 6.6776 17.2438 6.67675 17.2462 6.67549C17.4928 6.54198 17.5994 6.60155 17.7282 6.65732L18.2637 6.8956Z" fill="#231F20"/>
<path fill-rule="evenodd" clip-rule="evenodd" d="M24.4748 2.08172C24.4572 2.06102 24.3906 2.06017 24.3076 2.07411C24.1336 2.10453 23.8802 2.13791 23.8028 2.15227C23.4098 2.22198 23.2789 1.8785 23.2789 1.8785C23.2789 1.8785 23.6592 1.34744 23.7226 1.25914C23.7785 1.18309 23.7111 1.0517 23.6743 1.01579C23.4924 1.10451 23.3136 1.19619 23.1756 1.27097C22.9609 1.39053 22.5623 1.53291 22.5623 1.30941C22.5623 1.0931 22.5595 0.924106 22.5523 0.902982C22.4829 0.675261 22.3153 0.690471 22.3153 0.690471L16.4989 0.686669C16.4989 0.686669 16.194 0.697231 16.0707 0.674416C15.9478 0.65118 15.7471 0.582314 15.4507 0.451766C15.0648 0.280659 14.6199 0.0770209 14.4775 0.0111131C14.4479 -0.001984 14.4064 -0.00451892 14.3637 0.00900064C14.1 0.0846257 13.1567 0.330935 13.0809 1.08381C13.035 1.5346 14.329 2.91359 14.57 3.14216C14.6307 3.14216 14.8086 3.13962 14.8086 3.13962C14.8086 3.13962 14.2372 2.07961 14.2464 1.99215C14.2524 1.94568 14.4523 1.78809 14.5309 1.73063C14.5517 1.71627 14.5708 1.7112 14.592 1.72387C14.6135 1.73655 15.3234 2.14678 15.3234 2.14678C15.3234 2.14678 15.4499 2.22452 15.5803 2.22452C16.3668 2.22452 22.1341 2.22283 22.2076 2.22283C22.287 2.22283 22.2954 2.24733 22.2954 2.26339C22.2954 2.37154 22.2946 2.54223 22.2954 2.70024C22.2961 2.80501 22.3895 2.895 22.5164 2.94063C23 3.11723 23.9704 2.5925 24.5825 2.20931C24.5725 2.1979 24.5135 2.12904 24.4748 2.08172Z" fill="#231F20"/>
</g>
<path fill-rule="evenodd" clip-rule="evenodd" d="M8.80217 33.5341C8.92974 33.5681 9.09214 33.6287 9.14121 33.7244C9.26828 33.9711 9.27908 33.9825 9.42234 34.0295C9.42234 34.0295 9.52783 34.0674 9.54304 34.0727C9.54746 34.0815 9.56806 34.1241 9.57641 34.1418C9.45914 34.1722 8.9003 34.3089 8.59757 34.224C8.49847 34.196 8.43566 34.1462 8.41211 34.0754L8.38954 34.0107C8.29485 33.7335 8.24529 33.5924 8.01322 33.5294C8.00831 33.5205 7.99016 33.4835 7.98035 33.4633C8.1246 33.4395 8.51269 33.4569 8.80217 33.5341Z" fill="#231F20"/>
<path fill-rule="evenodd" clip-rule="evenodd" d="M7.67168 33.78C7.74351 33.8725 7.82964 34.0183 7.83186 34.1971C7.8379 34.6458 7.84108 34.6676 7.91672 34.7839C7.91672 34.7839 7.97202 34.875 7.97996 34.8881C7.97996 34.905 7.97996 34.9816 7.98028 35.014C7.89956 35.0359 7.50833 35.1236 7.34338 34.9012C7.29444 34.8362 7.26997 34.748 7.26997 34.6381C7.26997 34.6269 7.27028 34.6148 7.27092 34.6022L7.27632 34.4859C7.28427 34.3163 7.29063 34.1753 7.29063 34.0561C7.29063 33.8308 7.26584 33.6864 7.18289 33.5755C7.18257 33.5595 7.18225 33.4883 7.18225 33.4534C7.27918 33.4515 7.51405 33.5784 7.67168 33.78Z" fill="#231F20"/>
<path fill-rule="evenodd" clip-rule="evenodd" d="M2.09878 20.6929C2.18551 20.6727 2.27063 20.6903 2.35093 20.7458L2.37744 20.7641C2.77655 21.0385 2.91668 21.1337 3.11624 21.0674C3.12788 21.0745 3.16643 21.0974 3.19213 21.1135C3.09737 21.2098 2.66011 21.6251 2.33809 21.4325C1.94339 21.196 1.9197 21.193 1.73178 21.2304C1.73178 21.2304 1.69404 21.2379 1.68039 21.2406C1.66834 21.2334 1.61936 21.2034 1.59607 21.1888C1.63943 21.109 1.84542 20.7525 2.09878 20.6929Z" fill="#231F20"/>
<path fill-rule="evenodd" clip-rule="evenodd" d="M5.37872 17.9971C5.54022 18.3683 6.00856 18.5496 6.42803 18.3886C6.57763 18.3309 6.72213 18.211 6.8067 18.0907C6.82412 18.0668 6.82412 18.0401 6.80542 18.0218C6.80075 18.0186 6.7965 18.017 6.79225 18.015C6.44843 18.1317 6.08804 18.0254 5.97541 17.7677C5.86237 17.5096 6.04086 17.1957 6.37448 17.0531C6.37703 17.0419 6.37661 17.0304 6.37278 17.02C6.36471 17.0033 6.34813 16.9937 6.33156 16.9894H6.32986C6.16326 16.9619 6.01281 16.9814 5.84154 17.0471C5.42632 17.2068 5.21765 17.6263 5.37872 17.9971ZM6.01791 18.9283C5.90019 18.7571 5.72849 18.7535 5.62692 18.7439C5.125 18.7137 4.64901 18.9447 4.60014 18.9554C4.53426 18.9734 4.46329 18.9554 4.46329 18.9554C3.90145 18.7519 3.25886 18.4528 3.19214 18.4321C3.24909 18.2787 3.40548 18.0811 3.40548 18.0811C3.44713 18.0421 5.14413 15.847 8.75146 15.8976C9.15181 15.9032 9.3201 15.8972 9.57638 15.9506C9.52325 16.0446 9.3864 16.2027 9.35453 16.2417C8.196 17.6322 7.16454 20.6391 7.13777 20.6849C6.13479 19.9241 6.37321 19.4466 6.01791 18.9283Z" fill="#231F20"/>
<path fill-rule="evenodd" clip-rule="evenodd" d="M5.06618 32.6553C5.17462 32.701 5.39838 32.9157 5.51293 33.1498C5.54996 33.2247 5.58624 33.3243 5.58624 33.4264C5.58624 33.4677 5.58051 33.5086 5.566 33.5483C5.48696 33.7666 5.45641 33.8561 5.45641 33.9225C5.45641 33.9626 5.46749 33.9946 5.48582 34.042C5.48582 34.042 5.52018 34.1408 5.52476 34.1549C5.52018 34.1675 5.49803 34.2254 5.48849 34.2513C5.39227 34.2287 4.93254 34.1068 4.81494 33.8544C4.79699 33.8164 4.78821 33.7763 4.78821 33.735C4.78821 33.6868 4.80004 33.637 4.8241 33.5863L4.86457 33.4985C4.98867 33.232 5.06885 33.0595 5.06885 32.9116C5.06885 32.8553 5.05625 32.8031 5.03105 32.75C5.03564 32.7375 5.05549 32.6836 5.06618 32.6553Z" fill="#231F20"/>
<path fill-rule="evenodd" clip-rule="evenodd" d="M4.34303 31.8574C4.49385 31.9229 4.66703 32.1226 4.74456 32.3234C4.7677 32.3838 4.78814 32.4599 4.78814 32.5392C4.78814 32.5957 4.77773 32.6525 4.75034 32.7073C4.6219 32.961 4.5841 33.0565 4.5841 33.1489C4.5841 33.1915 4.5922 33.2337 4.603 33.2909C4.603 33.2909 4.61496 33.354 4.61727 33.3679C4.6111 33.3785 4.58372 33.4278 4.56983 33.4535C4.47649 33.4026 4.07111 33.1698 4.00053 32.9102C3.99358 32.8845 3.99011 32.8592 3.99011 32.8352C3.99011 32.7859 4.00438 32.7389 4.03254 32.6935L4.03871 32.6833C4.22462 32.3846 4.32182 32.2287 4.32182 32.076C4.32182 32.0322 4.31295 31.9892 4.29675 31.9423C4.30369 31.9304 4.32992 31.8819 4.34303 31.8574Z" fill="#231F20"/>
<path fill-rule="evenodd" clip-rule="evenodd" d="M3.66473 31.0591C3.79798 31.1484 3.93233 31.3729 3.97516 31.583C3.98358 31.624 3.99017 31.6731 3.99017 31.723C3.99017 31.801 3.97479 31.8836 3.92611 31.9538C3.73136 32.2364 3.70207 32.3035 3.70207 32.4282C3.70207 32.4512 3.70317 32.4754 3.70427 32.5035C3.70427 32.5035 3.70647 32.5655 3.70647 32.5791C3.69951 32.5889 3.66693 32.6321 3.65009 32.6551C3.56992 32.5904 3.22325 32.2988 3.19434 32.0337C3.19287 32.0216 3.19214 32.0103 3.19214 31.9986C3.19214 31.9347 3.213 31.8778 3.2551 31.8267L3.26206 31.8185C3.5044 31.5261 3.61714 31.3897 3.61714 31.2178C3.61714 31.1916 3.61385 31.1651 3.60872 31.1367C3.61641 31.1261 3.64899 31.0813 3.66473 31.0591Z" fill="#231F20"/>
<path fill-rule="evenodd" clip-rule="evenodd" d="M2.95435 30.2612C3.00753 30.3434 3.19207 30.6458 3.19207 30.9121C3.19207 31.0059 3.16883 31.0954 3.10931 31.1699C2.85469 31.4831 2.82581 31.5317 2.82581 31.6712C2.82581 31.6901 2.82616 31.7093 2.82687 31.7314C2.82687 31.7314 2.82757 31.7699 2.82792 31.7839C2.81947 31.7939 2.78461 31.8364 2.7677 31.8573C2.70044 31.7971 2.40954 31.5244 2.39475 31.263C2.3944 31.2566 2.39404 31.2497 2.39404 31.2433C2.39404 31.1603 2.42398 31.0861 2.48314 31.022L2.4997 31.0039C2.78601 30.6951 2.90505 30.566 2.90505 30.388C2.90505 30.3687 2.90258 30.3474 2.89977 30.3262C2.90822 30.3162 2.93534 30.2841 2.95435 30.2612Z" fill="#231F20"/>
<path fill-rule="evenodd" clip-rule="evenodd" d="M3.01235 29.4631C3.05429 29.5468 3.19207 29.8387 3.19207 30.0987C3.19207 30.2134 3.16479 30.3216 3.0901 30.4024C2.79272 30.7204 2.78453 30.7428 2.7743 30.9396C2.7743 30.9396 2.77191 30.978 2.77089 30.9922C2.76202 31.0016 2.72553 31.04 2.7078 31.0592C2.64778 30.9922 2.39404 30.691 2.39404 30.4269C2.39404 30.4236 2.39404 30.4208 2.39404 30.4175C2.39609 30.3248 2.43088 30.2461 2.49806 30.1828L2.50624 30.175C2.83296 29.8673 2.95573 29.7517 2.95573 29.5509C2.95573 29.5419 2.95539 29.5333 2.95505 29.5244C2.96426 29.515 2.99257 29.4848 3.01235 29.4631Z" fill="#231F20"/>
<path fill-rule="evenodd" clip-rule="evenodd" d="M0 25.3946C0 25.2718 0.0285648 25.0556 0.208115 24.9254C0.303501 24.8559 0.431533 24.8183 0.588639 24.8141L0.669743 24.8116C1.17575 24.7972 1.35581 24.7908 1.47262 24.675C1.49404 24.675 1.55984 24.6757 1.59555 24.6757C1.59606 24.6789 1.59606 24.6821 1.59606 24.6862C1.59606 24.8065 1.55933 25.2533 1.01915 25.2763L0.811037 25.2836C0.437144 25.2954 0.319314 25.2999 0.128542 25.4731C0.107118 25.4724 0.0387665 25.4724 0.00408069 25.4718C0.00255043 25.4555 0 25.4294 0 25.3946Z" fill="#231F20"/>
<path fill-rule="evenodd" clip-rule="evenodd" d="M1.57319 25.4731C1.58041 25.5332 1.596 25.6777 1.596 25.8445C1.596 26.1194 1.55383 26.4514 1.36321 26.5456L1.24623 26.6031C1.04319 26.6979 0.979646 26.7305 0.905706 27.0443C0.893864 27.048 0.856028 27.0625 0.836676 27.0692C0.825701 27.0003 0.797974 26.8025 0.797974 26.585C0.797974 26.439 0.810682 26.2867 0.849385 26.1598C0.889821 26.0293 0.95394 25.9423 1.04059 25.903L1.08333 25.8828C1.36956 25.7512 1.46141 25.7067 1.50531 25.4985C1.51715 25.4944 1.55326 25.4814 1.57319 25.4731Z" fill="#231F20"/>
<path fill-rule="evenodd" clip-rule="evenodd" d="M2.28982 22.2808C2.308 22.2851 2.36388 22.2977 2.39403 22.3055C2.36565 22.4349 2.20201 23.0671 1.71951 22.9889L1.53813 22.9585C1.21972 22.9025 1.1186 22.8873 0.903964 23.0788C0.885781 23.0744 0.827686 23.0601 0.797974 23.0532C0.814382 22.9524 0.895094 22.5452 1.14078 22.368C1.24322 22.2942 1.36296 22.2699 1.49777 22.2942L1.56208 22.3064C2.00999 22.3884 2.15411 22.4141 2.28982 22.2808Z" fill="#231F20"/>
<path fill-rule="evenodd" clip-rule="evenodd" d="M1.48117 23.0791C1.50016 23.0813 1.56235 23.0871 1.59606 23.09C1.58277 23.1993 1.49162 23.7389 0.969409 23.7233L0.775242 23.7154C0.427261 23.7012 0.317598 23.6969 0.113936 23.8771C0.0939975 23.875 0.032282 23.8695 0 23.8666C0.00379788 23.7819 0.0351304 23.437 0.272973 23.2666C0.371718 23.196 0.496573 23.1634 0.642791 23.1703L0.714476 23.1739C1.19966 23.1974 1.35584 23.2029 1.48117 23.0791Z" fill="#231F20"/>
<path fill-rule="evenodd" clip-rule="evenodd" d="M1.51824 27.0691C1.53896 27.1477 1.596 27.3858 1.596 27.6195C1.596 27.802 1.56095 27.9803 1.44526 28.0733C1.11604 28.3367 1.11253 28.3537 1.07238 28.5568C1.07238 28.5568 1.06441 28.5961 1.06122 28.6114C1.05166 28.6193 1.01246 28.6499 0.993019 28.6652C0.952225 28.5852 0.797974 28.2668 0.797974 28.0034C0.797974 27.9706 0.800205 27.9392 0.805622 27.9086C0.821876 27.813 0.865857 27.7396 0.936609 27.6911L0.941071 27.6876C1.30471 27.4386 1.43187 27.3495 1.45609 27.1167C1.46597 27.1102 1.49689 27.0853 1.51824 27.0691Z" fill="#231F20"/>
<path fill-rule="evenodd" clip-rule="evenodd" d="M1.54127 26.271C1.55595 26.3374 1.596 26.5355 1.596 26.745C1.596 26.9607 1.5532 27.1863 1.39451 27.2873L1.27649 27.3617C1.06888 27.4883 1.00344 27.53 0.94749 27.8301C0.935565 27.8362 0.897039 27.8557 0.877165 27.8671C0.857597 27.7931 0.797974 27.5485 0.797974 27.3015C0.797974 27.2105 0.806229 27.119 0.827938 27.0366C0.861266 26.9095 0.922723 26.818 1.01109 26.7645L1.05389 26.7393C1.3465 26.5635 1.44037 26.5061 1.47156 26.307C1.48348 26.3004 1.52048 26.2819 1.54127 26.271Z" fill="#231F20"/>
<path fill-rule="evenodd" clip-rule="evenodd" d="M2.25866 27.8672C2.29186 27.9501 2.3941 28.2266 2.3941 28.4782C2.3941 28.6157 2.36356 28.7444 2.27459 28.8297C1.96952 29.1217 1.95691 29.1413 1.93301 29.3479C1.93301 29.3479 1.92836 29.3862 1.9267 29.4008C1.91741 29.4095 1.87857 29.4453 1.85998 29.4632C1.80753 29.3899 1.59607 29.0792 1.59607 28.8172C1.59607 28.8035 1.5964 28.7906 1.59773 28.7777C1.60603 28.6848 1.64487 28.6082 1.71358 28.5507L1.73682 28.5311C2.07741 28.2454 2.19625 28.1446 2.19924 27.9242C2.20853 27.9151 2.23808 27.8876 2.25866 27.8672Z" fill="#231F20"/>
<path fill-rule="evenodd" clip-rule="evenodd" d="M1.19356 21.5123C1.27658 21.4723 1.36625 21.4731 1.45964 21.5148L1.48206 21.5251C1.95278 21.7382 2.11882 21.8109 2.30645 21.6961C2.31931 21.701 2.36373 21.718 2.39403 21.7303C2.32014 21.8542 1.97354 22.3972 1.60451 22.2584C1.13836 22.0842 1.12341 22.0908 0.942428 22.1721C0.942428 22.1721 0.907145 22.1874 0.893862 22.194C0.880163 22.1882 0.824955 22.1672 0.797974 22.1577C0.82371 22.0607 0.951145 21.6317 1.19356 21.5123Z" fill="#231F20"/>
<path fill-rule="evenodd" clip-rule="evenodd" d="M6.42948 32.6553C6.54194 32.6744 6.80048 32.8417 6.95964 33.0624C7.02464 33.152 7.09787 33.2845 7.09787 33.4281C7.09787 33.4437 7.09675 33.4593 7.09488 33.4749C7.07396 33.6564 7.06238 33.7616 7.06238 33.833C7.06238 33.9226 7.08068 33.9592 7.12141 34.0274C7.12141 34.0274 7.17483 34.1237 7.18231 34.138C7.18044 34.1527 7.17222 34.2205 7.16848 34.2513C7.07247 34.2522 6.60807 34.2468 6.44256 34.0082C6.4037 33.9525 6.38428 33.886 6.38428 33.8111C6.38428 33.7817 6.38764 33.7505 6.39362 33.7179L6.41305 33.6198C6.46124 33.3732 6.49673 33.1931 6.49673 33.0499C6.49673 32.9349 6.4732 32.8452 6.41566 32.7645C6.4179 32.7494 6.42537 32.6887 6.42948 32.6553Z" fill="#231F20"/>
<path fill-rule="evenodd" clip-rule="evenodd" d="M21.5009 22.9014C21.4655 22.8958 21.4309 22.8801 21.4607 22.7432C21.4779 22.6663 21.4876 22.6362 21.5664 22.641C21.5664 22.641 22.5106 22.6277 23.4451 22.8322C23.5806 22.862 23.7544 22.9014 23.9409 22.9437C23.9313 22.3604 23.8597 21.7929 23.7314 21.2471C23.345 21.14 22.4422 20.8933 22.0007 20.8083C21.3276 20.6779 20.1582 20.5906 20.1582 20.5906C20.1228 20.5853 20.0866 20.5708 20.1087 20.4344C20.1228 20.3547 20.1337 20.3249 20.2093 20.3241C20.2093 20.3241 21.1534 20.3012 22.0968 20.4513C22.4865 20.5145 23.166 20.6538 23.5951 20.7423C23.4202 20.1707 23.1829 19.6269 22.891 19.1174C22.4495 18.991 21.8069 18.8131 21.4562 18.7418C20.7843 18.6025 19.5956 18.5216 19.5956 18.5216C19.5598 18.516 19.5236 18.5051 19.5478 18.3663C19.5614 18.2866 19.5755 18.2588 19.6495 18.258C19.6495 18.258 20.6299 18.2077 21.572 18.3699C21.823 18.4134 22.1957 18.4898 22.5432 18.5647C22.1599 18.0068 21.7076 17.5 21.1985 17.0565C20.8744 16.9679 20.5442 16.883 20.3263 16.8383C19.6555 16.6994 18.487 16.5783 18.487 16.5783C18.4516 16.5726 18.4162 16.5598 18.4399 16.4213C18.4548 16.344 18.4713 16.3114 18.5409 16.3138C18.5409 16.3138 19.4291 16.2619 20.342 16.4072C19.0841 15.5804 17.5794 15.0986 15.9616 15.0986C14.814 15.0986 13.7226 15.3405 12.7366 15.7769L12.9248 15.9938C13.1476 15.9492 14.5136 15.6501 14.6238 15.6255C14.6728 15.6139 14.6901 15.6255 14.7424 15.6521C14.7762 15.6718 14.7778 15.6718 14.8297 15.6702C15.1956 15.6336 15.6958 15.6014 15.843 15.5869C15.8885 15.6054 16.1269 15.6992 16.1921 15.7419C16.1977 15.7459 16.2178 15.7805 16.1969 15.7906C16.1438 15.8091 15.3074 16.1878 15.2805 16.2535C15.2435 16.336 15.3082 16.4829 15.3452 16.4909C15.5849 16.6117 15.8462 16.7365 15.9958 16.8057C16.0513 16.8319 16.1 16.8939 16.4028 17.1696C16.4506 17.2066 16.4937 17.1833 16.5278 17.1716C16.5616 17.1563 16.5785 17.147 16.5877 17.137C16.5845 17.1293 16.5238 17.0545 16.5238 17.0343C16.5238 17.0227 16.5315 17.013 16.554 17.005L16.8853 16.8524C16.909 16.8399 16.93 16.8206 16.907 16.7659C16.8439 16.6141 16.7064 16.3195 16.6879 16.2796C16.7241 16.2716 16.792 16.2531 16.8568 16.2374C16.9376 16.218 17.0373 16.2655 17.0707 16.2828C17.3466 16.4269 18.4383 17.0009 18.4262 17.0078C18.3977 17.0239 18.1962 17.1233 18.1387 17.145C18.0591 17.1354 18.0306 17.1217 18.0076 17.1354L16.909 18.2234C16.7281 18.3904 16.9557 18.5317 16.8222 18.6935C16.8037 18.7213 16.7828 18.7454 16.7434 18.7841C16.6903 18.8557 16.5021 19.0348 16.3742 19.1882C16.3441 19.222 16.3396 19.2377 16.3236 19.2683C16.301 19.3118 16.2994 19.4539 16.3859 19.5915C16.5013 19.7771 16.634 20.0097 16.7297 20.1929C16.7796 20.2843 16.7603 20.5193 16.7518 20.5519C16.7406 20.601 16.708 20.6731 16.6569 20.6888C16.5162 20.686 16.3642 20.5624 16.3288 20.5213C16.3163 20.5056 16.2439 20.3949 16.1378 20.2275C16.1245 20.207 16.1269 20.122 16.11 20.1015C16.0767 20.0633 15.9432 19.8753 15.8965 19.8463C15.7851 19.7779 15.387 19.8942 15.2217 19.9381C15.1433 19.9019 15.1264 19.8942 15.087 19.8753C14.7199 19.9554 14.5944 20.0001 14.4215 20.0931C14.3029 20.1482 14.3073 20.494 14.2936 20.7777C14.313 21.2274 14.4211 21.5474 14.4549 21.6347C14.4943 21.6355 15.1063 21.6323 15.1453 21.5474C15.2125 21.4012 15.2386 21.3586 15.2897 21.3461C15.3661 21.3211 15.4711 21.3344 15.6162 21.3461C15.5881 21.4427 15.5599 21.5465 15.5217 21.6818C15.5036 21.7683 15.4908 21.8517 15.6106 21.8674C15.7135 21.8738 15.771 21.8754 15.8724 21.8831C15.9001 21.9776 15.954 22.1644 15.991 22.288C16.0119 22.4168 16.4559 22.284 16.5154 22.2699C16.6107 22.2518 16.8443 22.2163 16.8986 22.0976C17.0349 21.8227 17.1037 21.7941 17.3839 21.8021C17.4764 21.7941 18.3909 21.8146 18.6945 21.931C18.9233 22.0183 20.2824 22.8282 20.4296 22.9389C20.7557 23.1804 20.7264 23.1715 20.7686 23.3502C20.7871 23.3881 20.8627 23.4569 20.9922 23.5539C21.0794 23.5052 21.1864 23.5515 21.2584 23.5869C21.4048 23.6497 21.936 24.1472 22.0051 24.2321C22.0546 24.2841 22.1628 24.3855 22.1049 24.4861L20.9898 26.103C20.8563 26.2958 20.5772 26.4255 20.5177 26.4178L19.738 27.5324C19.7034 27.5758 19.547 27.5678 19.4806 27.5948L18.031 29.6842C17.6835 29.5546 17.6574 29.2378 17.8882 28.2968C17.8472 28.2489 17.7993 28.1466 17.8186 28.0806C17.9349 27.3303 18.0631 26.6191 18.1194 26.3212C18.1548 25.806 17.9723 25.7488 17.6385 25.5709C16.6947 25.133 16.7574 25.015 16.5085 24.402C16.4868 24.3754 16.4784 24.3114 16.486 24.2684C16.5105 24.0373 16.8407 23.3192 16.7675 23.1482C16.7466 23.0978 16.6054 22.8439 16.5632 22.7952C16.5029 22.7456 16.486 22.7126 16.3533 22.7275C16.1486 22.767 16.0992 22.7843 15.8655 22.8109C15.6838 22.8282 15.6782 22.7203 15.6544 22.5834C15.6379 22.4603 15.6564 22.4216 15.5302 22.3612C15.3922 22.2904 15.2097 22.2308 14.9153 22.1262C14.6829 22.0437 14.662 22.1125 14.5751 22.1592C14.3323 22.0662 13.799 21.877 13.4214 21.7321C13.1589 21.6669 13.2345 21.295 13.0475 21.0764L12.4736 20.3801C12.3783 20.2686 12.1664 20.3358 12.1278 20.3949C12.1604 20.4412 12.6305 21.2213 12.6671 21.2849C12.624 21.3046 12.4893 21.3723 12.4407 21.3642C12.3964 21.357 12.3651 21.3272 12.3196 21.2889C11.8934 20.8164 10.9142 19.9844 10.7771 19.8383C10.6778 19.7268 10.6971 19.5992 10.5567 18.9334C10.4474 18.4138 10.65 18.2371 10.8619 17.9167C10.8853 17.8631 10.9014 17.8486 10.8881 17.8027C10.8712 17.7516 10.8897 17.6538 10.8881 17.6353L10.8117 16.9816C10.34 17.3805 9.91535 17.8333 9.54701 18.3296C9.9439 18.3232 10.2153 18.3441 10.2153 18.3441C10.2917 18.3498 10.3022 18.3735 10.3163 18.4524C10.3408 18.5913 10.3046 18.6025 10.2692 18.6086C10.2692 18.6086 9.75129 18.7156 9.20682 18.8279C8.89316 19.3259 8.63219 19.8604 8.43273 20.4239C8.53568 20.4034 8.63098 20.3861 8.71221 20.372C9.65478 20.2086 10.5986 20.2871 10.5986 20.2871C10.6794 20.2903 10.6862 20.3165 10.6999 20.3941C10.724 20.5326 10.6882 20.5467 10.6524 20.5519C10.6524 20.5519 9.48388 20.6542 8.81314 20.7934C8.67079 20.8216 8.48059 20.8691 8.27591 20.9226C8.12109 21.4753 8.02378 22.0521 7.99201 22.6466C8.38488 22.5718 9.22491 22.4152 9.67569 22.3516C10.6215 22.2188 11.5604 22.3029 11.5604 22.3029C11.6405 22.3101 11.6461 22.3343 11.6577 22.4136C11.6766 22.5528 11.6413 22.5633 11.6059 22.5677C11.6059 22.5677 10.4341 22.5758 9.75812 22.6929C9.29971 22.7722 8.34386 23.0137 7.98035 23.1071C7.98276 23.6904 8.0479 24.2583 8.16854 24.8053C8.59398 24.726 9.32464 24.594 9.7344 24.5372C10.681 24.4076 11.6252 24.4869 11.6252 24.4869C11.708 24.491 11.7116 24.5224 11.7225 24.5992C11.7426 24.7377 11.7052 24.7494 11.669 24.7534C11.669 24.7534 10.5012 24.7747 9.82608 24.8903C9.41632 24.9603 8.67079 25.1418 8.27751 25.24C8.45726 25.8808 8.71462 26.4886 9.03953 27.053C9.44246 26.9773 9.92621 26.8912 10.2314 26.8461C11.1764 26.7092 12.1214 26.7889 12.1214 26.7889C12.2163 26.7942 12.207 26.8211 12.2195 26.8996C12.2388 27.0373 12.2042 27.0506 12.1684 27.0538C12.1684 27.0538 10.9971 27.1065 10.3223 27.2261C10.0682 27.2707 9.66282 27.3657 9.28925 27.4587C9.71309 28.1023 10.2278 28.682 10.8153 29.1787C10.9713 29.1481 11.1161 29.1215 11.2339 29.1026C12.1777 28.9545 13.1191 29.0366 13.1191 29.0366C13.183 29.0398 13.2063 29.0563 13.2176 29.1473C13.2393 29.2833 13.2035 29.2966 13.1685 29.3022C13.1685 29.3022 11.9959 29.4178 11.3228 29.5442C11.3127 29.5458 11.3015 29.5482 11.2914 29.5506C12.6047 30.4993 14.2176 31.0592 15.9616 31.0592C17.5991 31.0592 19.1203 30.5657 20.3866 29.7196C19.7138 29.5671 18.7713 29.4153 18.7713 29.4153C18.7367 29.4073 18.7021 29.3916 18.7323 29.258C18.7492 29.1787 18.7632 29.1505 18.8368 29.1529C18.8368 29.1529 19.7822 29.13 20.7147 29.3352C20.7626 29.3453 20.8148 29.3574 20.8703 29.3715C21.4816 28.8933 22.022 28.3281 22.472 27.6954C21.8093 27.5151 20.6576 27.3054 20.6576 27.3054C20.6222 27.2981 20.5885 27.2824 20.6206 27.1464C20.6391 27.0679 20.6649 27.0421 20.7272 27.0449C20.7272 27.0449 21.6722 27.0522 22.6015 27.2699C22.6425 27.28 22.6871 27.2905 22.7338 27.3021C23.0804 26.7479 23.3607 26.1481 23.5642 25.5129C22.9726 25.3644 22.3522 25.2227 22.3522 25.2227C22.3172 25.2151 22.2826 25.1994 22.3164 25.0633C22.3357 24.9861 22.3469 24.9671 22.4245 24.9619C22.4245 24.9619 22.9976 24.9671 23.6892 25.0766C23.8279 24.5397 23.9124 23.9806 23.9357 23.4058C23.7041 23.3337 23.4865 23.2689 23.3277 23.2291C22.6642 23.0616 21.5009 22.9014 21.5009 22.9014Z" fill="#231F20"/>
<path fill-rule="evenodd" clip-rule="evenodd" d="M2.55879 20.309C2.76951 20.3253 2.80728 20.3288 3.14633 20.5885C3.26421 20.6792 3.4376 20.69 3.5623 20.683C3.64741 20.6792 3.73615 20.664 3.82126 20.6425C3.87633 20.5559 3.93276 20.4694 3.9901 20.3835C3.82262 20.3457 3.68791 20.2238 3.4285 19.9869L3.41212 19.9724C3.35295 19.9173 3.27968 19.8896 3.1882 19.8869C2.87964 19.8796 2.48188 20.1705 2.39404 20.2373C2.4168 20.2564 2.46276 20.2934 2.47232 20.3017C2.48825 20.3031 2.55879 20.309 2.55879 20.309Z" fill="#231F20"/>
<path fill-rule="evenodd" clip-rule="evenodd" d="M8.77832 33.4534C8.91416 33.5579 9.0409 33.7467 9.22504 34.0218L9.27 34.0892C9.33457 34.1872 9.41923 34.2395 9.52685 34.2494C9.85543 34.2818 10.2869 33.906 10.3744 33.8261C10.372 33.8235 10.3691 33.8201 10.3662 33.8158C9.82913 33.7147 9.29774 33.5916 8.77832 33.4534Z" fill="#231F20"/>
<path fill-rule="evenodd" clip-rule="evenodd" d="M33.195 15.417C32.7444 14.4458 31.904 13.7672 30.9658 13.5024C30.9718 13.5582 30.9754 13.6152 30.9754 13.6736C30.9754 13.8031 30.9598 13.9357 30.9273 14.0538C30.9273 14.0542 30.9273 14.0542 30.9273 14.0545L31.0011 14.1451C31.0316 14.1825 31.2625 14.4756 31.291 14.8095C31.659 15.0545 31.973 15.4086 32.177 15.8484C32.7047 16.9855 32.2965 18.259 31.2661 18.6934C30.4462 19.038 29.48 18.7476 28.8529 18.0419C28.8922 17.9304 28.9142 17.8115 28.9142 17.6874C28.9142 17.2388 28.6344 16.8525 28.2323 16.6783C28.1958 16.3776 28.2186 16.0826 28.2948 15.8094C28.2904 15.7751 28.2872 15.7411 28.2872 15.7063C28.2872 15.6639 28.2908 15.6218 28.2984 15.5794C28.2992 15.5764 28.3 15.5737 28.3008 15.5706L28.1966 15.4251C28.124 15.3238 27.7712 14.8004 27.9135 14.3912C27.9207 14.3701 27.9292 14.3491 27.9392 14.3289L27.9211 14.2991C27.3165 14.9394 27.0218 15.8362 27.1185 16.757C26.9962 16.833 26.8895 16.9293 26.8049 17.042L26.1927 17.2931L25.0625 14.9757L23.1428 15.8247L23.7073 16.9828C23.7394 17.0031 23.7699 17.0256 23.7979 17.0512L23.9563 17.0661C24.0794 17.0776 24.7057 17.1517 24.9631 17.4868C24.9771 17.5047 24.9895 17.5235 25.0007 17.5426L25.0825 17.5502C25.1952 17.5613 25.7697 17.6331 26.0091 17.9724C26.0159 17.9827 26.0215 17.9934 26.0279 18.003L26.1117 18.0171C26.1715 18.0263 26.6726 18.1157 26.9312 18.4298L27.0984 18.4431C27.2776 18.458 27.539 18.6067 27.7427 18.7954C27.7455 18.7954 27.7479 18.7962 27.7507 18.7962C27.8482 18.7962 27.9428 18.7843 28.033 18.7625C28.0723 18.8053 28.1124 18.8462 28.1533 18.8863C28.193 18.9261 28.2335 18.9643 28.2748 19.0006C28.2752 19.0013 28.276 19.0013 28.2764 19.0021C28.4003 19.1133 28.5314 19.2157 28.6681 19.3074C28.6697 19.3082 28.6713 19.3097 28.6729 19.3104C28.8084 19.4014 28.9499 19.482 29.0955 19.5523C29.0983 19.5538 29.1011 19.5554 29.1039 19.5565C29.249 19.626 29.3986 19.6849 29.5505 19.7334C29.5537 19.7342 29.5569 19.7349 29.5602 19.7357C29.6087 19.7514 29.6576 19.7655 29.7069 19.7785C29.7089 19.7793 29.7109 19.7796 29.7129 19.7796C29.8163 19.8075 29.9202 19.8289 30.0252 19.8461C30.0276 19.8461 30.0296 19.8469 30.032 19.8469C30.0818 19.8553 30.1311 19.861 30.1812 19.8671C30.1852 19.8679 30.1892 19.8679 30.1932 19.8687C30.2987 19.8797 30.4045 19.8859 30.5112 19.8867C30.9153 19.8889 31.3214 19.8133 31.7083 19.6509C33.3025 18.9792 33.968 17.0841 33.195 15.417Z" fill="#231F20"/>
<path fill-rule="evenodd" clip-rule="evenodd" d="M28.534 21.4776C28.5151 21.4355 28.409 21.4448 28.2971 21.4988L27.6088 21.8303C27.6076 21.8311 27.5767 21.7671 27.5625 21.7294C27.5304 21.6582 27.5204 21.4872 27.8761 21.3222L28.0725 21.2257L27.6701 20.3272C27.4957 20.3164 26.9652 20.2568 26.7241 19.9372L26.5539 19.898C26.503 19.8864 26.0813 19.7823 25.8517 19.478L25.5963 19.3763C25.3698 19.2866 25.0565 19.0972 24.8902 18.8273L24.7996 18.8289C24.5557 18.8329 24.2517 18.6852 24.0406 18.4653L23.8524 18.4866C23.6965 18.5042 23.4553 18.4221 23.2412 18.2908L23.1428 18.3348C23.4912 18.9202 23.7717 19.5544 23.9723 20.2263L25.1318 19.675L26.3656 22.4301L26.327 22.449C26.2152 22.503 26.1399 22.5811 26.1588 22.6235L26.351 23.052C26.3699 23.0948 26.476 23.0856 26.5879 23.0316L28.5579 22.0806C28.6698 22.0265 28.745 21.9493 28.7261 21.9064L28.534 21.4776Z" fill="#231F20"/>
<path fill-rule="evenodd" clip-rule="evenodd" d="M23.8111 16.8661C23.8572 16.9294 23.8801 17.0113 23.8801 17.1104C23.8801 17.1275 23.8795 17.1456 23.8778 17.1637L23.8695 17.2723C23.8533 17.4747 23.8403 17.6356 23.8403 17.7661C23.8403 17.9475 23.8662 18.0723 23.9409 18.1718C23.9405 18.1875 23.9389 18.2566 23.9379 18.2909C23.8353 18.2871 23.5904 18.1471 23.4308 17.9375C23.3608 17.8452 23.2779 17.7004 23.2779 17.5309C23.2779 17.528 23.2779 17.5256 23.2779 17.5232C23.2792 17.4342 23.2802 17.3623 23.2802 17.3032C23.2802 17.0713 23.2663 17.0385 23.2059 16.9432C23.2059 16.9432 23.1505 16.8494 23.1428 16.8366C23.1432 16.8209 23.1445 16.7466 23.1451 16.7142C23.2291 16.6989 23.6439 16.6361 23.8111 16.8661Z" fill="#231F20"/>
<path fill-rule="evenodd" clip-rule="evenodd" d="M23.9557 17.4927C24.0616 17.5079 24.5271 17.5887 24.6839 17.8349C24.7176 17.8881 24.7347 17.9449 24.7347 18.007C24.7347 18.0293 24.7324 18.0517 24.7281 18.0758L24.725 18.091C24.6765 18.3546 24.6431 18.5329 24.6431 18.6705C24.6431 18.7952 24.6718 18.8868 24.7389 18.9779C24.737 18.9936 24.7281 19.057 24.7234 19.0887C24.5562 19.0807 24.3219 18.9386 24.1787 18.7545C24.1143 18.6714 24.0418 18.5463 24.0418 18.4024C24.0418 18.3877 24.0426 18.372 24.0441 18.3564C24.062 18.1906 24.0713 18.0798 24.0713 17.9971C24.0713 17.8519 24.0426 17.7929 23.9809 17.679C23.9809 17.679 23.9479 17.6173 23.9409 17.6044C23.9429 17.5901 23.9514 17.5253 23.9557 17.4927Z" fill="#231F20"/>
<path fill-rule="evenodd" clip-rule="evenodd" d="M25.5621 17.4927C25.6655 17.5069 26.1251 17.5798 26.2827 17.8139C26.3177 17.8652 26.335 17.9221 26.335 17.9837C26.335 18.0178 26.3298 18.054 26.3186 18.0911L26.3125 18.1114C26.2195 18.4218 26.1623 18.6123 26.1623 18.7529C26.1623 18.849 26.1896 18.9219 26.2489 18.9943C26.245 19.0098 26.2333 19.0568 26.2255 19.0887C26.0974 19.034 25.5586 18.7839 25.5586 18.4226C25.5586 18.3968 25.5617 18.3687 25.5677 18.3411C25.6244 18.0984 25.6517 17.9691 25.6517 17.8794C25.6517 17.7871 25.6227 17.7363 25.5668 17.6462C25.5668 17.6462 25.5452 17.6108 25.537 17.5979C25.5404 17.5828 25.5552 17.5224 25.5621 17.4927Z" fill="#231F20"/>
<path fill-rule="evenodd" clip-rule="evenodd" d="M26.3856 18.2908C26.4837 18.3098 26.9085 18.4065 27.0705 18.6575C27.1119 18.7219 27.133 18.7923 27.133 18.8686C27.133 18.9139 27.1255 18.9623 27.1101 19.011L27.0916 19.0712C27.0119 19.3281 26.9644 19.482 26.9644 19.5939C26.9644 19.6711 26.9899 19.727 27.0397 19.7825C27.034 19.7991 27.0119 19.8589 27.0018 19.8868C26.9063 19.8631 26.5396 19.758 26.3944 19.5261C26.3548 19.4621 26.335 19.3934 26.335 19.3205C26.335 19.2802 26.3407 19.2387 26.353 19.1963L26.4049 19.0195C26.449 18.8728 26.4789 18.7732 26.4789 18.6863C26.4789 18.5905 26.441 18.5082 26.3473 18.3934C26.3539 18.376 26.3759 18.3171 26.3856 18.2908Z" fill="#231F20"/>
<path fill-rule="evenodd" clip-rule="evenodd" d="M27.2532 18.2908C27.3687 18.3183 27.6254 18.5052 27.7746 18.7321C27.8297 18.816 27.8898 18.9375 27.8898 19.0645C27.8898 19.0877 27.8879 19.1114 27.8833 19.1351C27.845 19.3349 27.827 19.4386 27.827 19.5075C27.827 19.5747 27.8442 19.6091 27.8768 19.669C27.8768 19.669 27.9242 19.765 27.9311 19.7783C27.928 19.7925 27.915 19.858 27.9097 19.8868C27.8102 19.8791 27.3328 19.8322 27.1797 19.5872C27.1484 19.5377 27.1331 19.4821 27.1331 19.421C27.1331 19.3848 27.1384 19.3469 27.1495 19.3073L27.174 19.2199C27.2478 18.9581 27.2987 18.776 27.2987 18.6313C27.2987 18.5422 27.2777 18.4682 27.2321 18.3975C27.2348 18.3838 27.2471 18.3226 27.2532 18.2908Z" fill="#231F20"/>
<path fill-rule="evenodd" clip-rule="evenodd" d="M29.5271 19.8867C29.5548 20.0003 29.5834 20.1367 29.6172 20.2972L29.642 20.4164C29.6704 20.5506 29.7164 20.6356 29.7784 20.6686C29.9709 20.7693 30.2659 20.3694 30.3251 20.2849C30.3234 20.2788 30.3208 20.2698 30.3186 20.2598C30.0481 20.2229 29.781 20.0942 29.5271 19.8867Z" fill="#231F20"/>
<path fill-rule="evenodd" clip-rule="evenodd" d="M29.4625 20.4085C29.3878 20.2949 29.3838 20.2707 29.3706 19.8269C29.1497 19.6301 28.9426 19.3821 28.7552 19.0908C28.7457 19.0899 28.7368 19.0889 28.7291 19.0889C28.7297 19.1253 28.7313 19.1986 28.7316 19.2148C28.8207 19.33 28.8443 19.4918 28.8443 19.7541C28.8443 19.8609 28.8406 19.9849 28.836 20.1295L28.8327 20.2471C28.8324 20.2555 28.8324 20.2634 28.8324 20.2707C28.8324 20.3874 28.8575 20.4804 28.9071 20.5478C29.0704 20.7677 29.4497 20.6629 29.5272 20.6393C29.5265 20.6053 29.5247 20.5276 29.5244 20.5104C29.5167 20.4981 29.4625 20.4085 29.4625 20.4085Z" fill="#231F20"/>
<path fill-rule="evenodd" clip-rule="evenodd" d="M23.1429 17.4929C23.1301 17.4264 23.123 17.348 23.1151 17.2566L23.0833 16.955C23.0692 16.8587 23.0185 16.7885 22.9325 16.7462C22.7794 16.6708 22.5403 16.6908 22.3448 16.7276C22.6303 16.9676 22.8972 17.2232 23.1429 17.4929Z" fill="#231F20"/>
<path fill-rule="evenodd" clip-rule="evenodd" d="M30.9656 16.6948C30.9975 16.7819 31.1231 17.1437 31.1231 17.4335C31.1231 17.4926 31.1179 17.5481 31.1057 17.5981C31.0822 17.6944 31.0338 17.7609 30.9616 17.7943L30.8975 17.8241C30.6133 17.9539 30.4686 18.0222 30.4158 18.2505C30.4066 18.256 30.3686 18.2785 30.3486 18.2909C30.3344 18.2336 30.3251 18.1332 30.3251 18.013C30.3251 17.8571 30.3399 17.6701 30.3764 17.51C30.4045 17.3853 30.4588 17.2239 30.5559 17.1639C30.805 17.008 30.8163 16.9965 30.8578 16.8558C30.8578 16.8558 30.892 16.7508 30.8966 16.7361C30.9056 16.7306 30.9474 16.7054 30.9656 16.6948Z" fill="#231F20"/>
<path fill-rule="evenodd" clip-rule="evenodd" d="M31.6983 15.8967C31.7397 15.9756 31.9212 16.337 31.9212 16.6212C31.9212 16.6544 31.9188 16.6863 31.9133 16.717C31.8959 16.8114 31.8506 16.8813 31.7778 16.9248L31.7145 16.9623C31.4273 17.1336 31.2809 17.222 31.2434 17.4441C31.2343 17.4505 31.1975 17.4777 31.1771 17.4928C31.1475 17.4165 31.1232 17.2457 31.1232 17.0564C31.1232 16.9572 31.1299 16.8541 31.1457 16.7592C31.1658 16.638 31.2099 16.4781 31.3065 16.4052C31.5543 16.2167 31.5653 16.2038 31.5978 16.0653C31.5978 16.0653 31.6256 15.9618 31.6292 15.9472C31.6383 15.9407 31.6801 15.9101 31.6983 15.8967Z" fill="#231F20"/>
<path fill-rule="evenodd" clip-rule="evenodd" d="M30.9978 17.5048C30.9902 17.5185 30.9342 17.6218 30.9342 17.6218C30.8636 17.7609 30.8494 17.7685 30.5583 17.8158C30.4592 17.8306 30.3795 17.9526 30.3251 18.068C30.3532 18.0906 30.3814 18.112 30.4099 18.1312C30.6459 18.289 30.8902 18.3302 31.1187 18.2527C31.1215 18.2021 31.1231 18.1499 31.1231 18.0983C31.1231 17.8328 31.0896 17.5735 31.0782 17.4927C31.057 17.496 31.0086 17.5037 30.9978 17.5048Z" fill="#231F20"/>
<path fill-rule="evenodd" clip-rule="evenodd" d="M31.9212 17.4927C31.863 17.5465 31.7989 17.5658 31.6268 17.617L31.4488 17.6708C31.3159 17.7118 31.2399 17.8239 31.1995 17.9105C31.1453 18.0278 31.1232 18.1663 31.1232 18.2788C31.1232 18.2833 31.1236 18.2872 31.1236 18.2907C31.5161 18.1328 31.7906 17.8426 31.9212 17.4927Z" fill="#231F20"/>
<path fill-rule="evenodd" clip-rule="evenodd" d="M29.3773 14.3008C29.4108 14.37 29.5272 14.6266 29.5272 14.8712C29.5272 14.9024 29.5253 14.934 29.5209 14.9647C29.5049 15.0792 29.4572 15.1714 29.3798 15.2393L29.2647 15.3383C29.0643 15.5091 29.0016 15.5642 28.9884 15.8443C28.9762 15.8533 28.9355 15.8832 28.917 15.8968C28.8774 15.8247 28.7291 15.5335 28.7291 15.2628C28.7291 15.2337 28.7307 15.206 28.7345 15.1782C28.7498 15.0578 28.8009 14.9596 28.8869 14.8879L28.9295 14.8524C29.2136 14.615 29.3045 14.5382 29.307 14.3529C29.3199 14.3431 29.3581 14.3149 29.3773 14.3008Z" fill="#231F20"/>
<path fill-rule="evenodd" clip-rule="evenodd" d="M29.4931 13.5024C29.5129 13.5684 29.5272 13.6962 29.5272 13.8463C29.5272 13.9813 29.5162 14.1314 29.489 14.2637C29.4638 14.3858 29.4135 14.5461 29.3164 14.6121C29.0642 14.7836 29.0553 14.7978 29.0189 14.9328C29.0189 14.9328 28.9878 15.0375 28.9834 15.0522C28.9742 15.0584 28.9319 15.086 28.9135 15.0985C28.8774 15.0143 28.7291 14.6508 28.7291 14.3635C28.7291 14.3163 28.7333 14.2713 28.7421 14.2303C28.7635 14.1336 28.8093 14.0682 28.883 14.0299C28.8833 14.0299 28.9488 13.996 28.9488 13.996C29.2335 13.8481 29.3789 13.7715 29.4259 13.5474C29.4351 13.5412 29.473 13.5158 29.4931 13.5024Z" fill="#231F20"/>
<path fill-rule="evenodd" clip-rule="evenodd" d="M30.955 14.3008C30.9922 14.3694 31.1231 14.6288 31.1231 14.8763C31.1231 14.8999 31.1218 14.9239 31.1193 14.9475C31.1063 15.0616 31.0608 15.1546 30.9839 15.2257L30.8698 15.3293C30.6718 15.5074 30.6098 15.5642 30.6044 15.8413C30.592 15.8509 30.552 15.8825 30.5336 15.8968C30.49 15.8253 30.3251 15.5335 30.3251 15.2615C30.3251 15.2401 30.3263 15.219 30.3286 15.198C30.3406 15.078 30.3899 14.979 30.4751 14.9041L30.5177 14.8662C30.7945 14.622 30.886 14.5412 30.886 14.3631C30.886 14.3606 30.8857 14.358 30.8857 14.3555C30.899 14.345 30.9362 14.3155 30.955 14.3008Z" fill="#231F20"/>
<path fill-rule="evenodd" clip-rule="evenodd" d="M31.6111 15.0986C31.6673 15.1717 31.9212 15.5155 31.9212 15.7923C31.9212 15.8046 31.9209 15.8168 31.9199 15.8295C31.9116 15.9218 31.8727 15.9932 31.8005 16.0483L31.7357 16.0982C31.4572 16.3109 31.3151 16.4211 31.2985 16.6355C31.2895 16.6441 31.2531 16.6771 31.234 16.6947C31.1822 16.6045 31.1232 16.3493 31.1232 16.1067C31.1232 16.0745 31.1241 16.0422 31.1267 16.0112C31.135 15.8936 31.1647 15.736 31.2573 15.6494C31.4984 15.4241 31.5057 15.4085 31.5243 15.2771C31.5243 15.2771 31.5418 15.1746 31.5444 15.1599C31.553 15.1521 31.5936 15.115 31.6111 15.0986Z" fill="#231F20"/>
<path fill-rule="evenodd" clip-rule="evenodd" d="M30.0365 15.8967C30.0892 15.9718 30.3251 16.3214 30.3251 16.5984C30.3251 16.6153 30.3242 16.6318 30.3223 16.6483C30.3119 16.7416 30.2714 16.8122 30.1985 16.865L30.1334 16.9121C29.8524 17.1151 29.7093 17.22 29.6872 17.4358C29.6781 17.4437 29.6408 17.4759 29.6212 17.4928C29.5754 17.4049 29.5271 17.168 29.5271 16.9352C29.5271 16.8894 29.529 16.8427 29.5334 16.7977C29.5448 16.6797 29.5779 16.5212 29.6724 16.4374C29.913 16.2236 29.9231 16.21 29.9459 16.0734C29.9459 16.0734 29.9657 15.9702 29.9686 15.9558C29.9774 15.9479 30.0188 15.9124 30.0365 15.8967Z" fill="#231F20"/>
<path fill-rule="evenodd" clip-rule="evenodd" d="M29.5271 13.2962C29.5271 13.1219 29.5936 12.9249 29.7254 12.8255C29.8006 12.7691 29.8812 12.7466 29.9462 12.7285L30.0001 12.7127C30.0588 12.6936 30.146 12.709 30.2122 12.751C30.2607 12.7819 30.2934 12.8238 30.3039 12.8688C30.3164 12.9212 30.3251 12.9601 30.3251 12.9913C30.3251 13.0571 30.2856 13.0867 30.1595 13.1313L30.1451 13.1364C29.8198 13.2518 29.6946 13.2972 29.6373 13.4731C29.6275 13.4768 29.5888 13.4936 29.5681 13.5026C29.5418 13.4449 29.5271 13.3737 29.5271 13.2962Z" fill="#231F20"/>
<path fill-rule="evenodd" clip-rule="evenodd" d="M28.7291 13.2965C28.7291 13.1225 28.7959 12.9247 28.9277 12.8257C29.0025 12.7693 29.0834 12.7464 29.1481 12.7286L29.2023 12.7129C29.2606 12.6934 29.3478 12.7092 29.414 12.7511C29.4625 12.782 29.4951 12.8237 29.5056 12.8687C29.5185 12.921 29.5272 12.9603 29.5272 12.9912C29.5272 13.0574 29.4876 13.0869 29.3616 13.1316L29.3472 13.137C29.0217 13.2521 28.8965 13.2975 28.8396 13.4731C28.8297 13.4774 28.7908 13.4942 28.7704 13.5026C28.7438 13.4452 28.7291 13.3737 28.7291 13.2965Z" fill="#231F20"/>
<mask id="mask1_102_2709" style="mask-type:alpha" maskUnits="userSpaceOnUse" x="0" y="13" width="31" height="18">
<path d="M0.0239258 13.0427H30.839V30.0402H0.0239258V13.0427Z" fill="#231F20"/>
</mask>
<g mask="url(#mask1_102_2709)">
<path fill-rule="evenodd" clip-rule="evenodd" d="M30.7788 13.0427C30.8128 13.1094 30.8391 13.2506 30.8391 13.411C30.8391 13.5144 30.8283 13.6237 30.8024 13.7234C30.7729 13.8348 30.711 13.9808 30.5829 14.0454C30.2541 14.211 30.2398 14.2226 30.1939 14.3491C30.1939 14.3491 30.156 14.4449 30.1504 14.458C30.1384 14.464 30.0826 14.4915 30.0582 14.5035C30.006 14.4297 29.7821 14.0973 29.7821 13.836C29.7821 13.8013 29.7861 13.7677 29.7949 13.7362C29.8196 13.65 29.8811 13.5866 29.9776 13.5491L30.0646 13.5148C30.4425 13.3663 30.6352 13.2897 30.6903 13.0862C30.7022 13.0802 30.7517 13.0559 30.7788 13.0427Z" fill="#231F20"/>
<path fill-rule="evenodd" clip-rule="evenodd" d="M1.05891 28.9462C1.04414 28.927 1.01621 28.8887 0.983491 28.8364C0.780393 29.0671 0.569713 29.2917 0.436043 29.431C0.333097 29.5403 -0.0671144 29.7981 0.00989542 29.9557C0.0749348 30.1193 0.5346 29.9952 0.684629 29.9924C0.898501 29.986 1.25323 29.9804 1.59239 29.9876C1.49024 29.8767 1.17502 29.5028 1.18978 29.1201L1.05891 28.9462Z" fill="#231F20"/>
</g>
<path fill-rule="evenodd" clip-rule="evenodd" d="M3.33674 19.5209C3.45178 19.5596 3.46332 19.5734 3.62415 19.8869C3.74315 19.6412 3.86504 19.403 3.99017 19.1743C3.95699 19.136 3.9166 19.1096 3.86936 19.0974C3.62523 19.0351 3.26354 19.334 3.19214 19.3947C3.20404 19.418 3.23144 19.4716 3.23721 19.4835C3.24948 19.4878 3.33674 19.5209 3.33674 19.5209Z" fill="#231F20"/>
<path fill-rule="evenodd" clip-rule="evenodd" d="M5.81369 23.6458C5.95272 22.6263 6.17484 21.476 6.34183 20.5677C6.34649 20.5432 6.35076 20.5192 6.35542 20.4947C6.35775 20.4818 6.36008 20.469 6.36241 20.4557C6.3694 20.4179 6.37639 20.3797 6.38299 20.3424C6.38299 20.3424 6.38299 20.3416 6.38299 20.3399C6.38338 20.3279 6.38493 20.276 6.38376 20.2117C6.3826 20.1358 6.37833 20.0432 6.36435 19.9802C6.30882 19.7337 6.29756 19.2814 6.1065 19.1511C5.93058 19.0295 5.39313 19.1171 5.30809 19.1548C5.23508 19.1785 5.0914 19.4137 5.0914 19.4137C5.02266 19.5262 4.95509 19.6407 4.88908 19.7557C4.59006 20.2744 4.32017 20.8125 4.07824 21.3561C3.18585 23.3562 2.66355 25.4127 2.39404 26.7285C2.4321 26.838 2.45928 26.953 2.47365 27.0692C2.47326 27.0667 2.47326 27.065 2.47287 27.0634C2.51831 27.0505 2.56297 27.0397 2.60724 27.0318C2.65656 27.0227 2.70277 27.019 2.74626 27.0165L2.78276 26.9426C2.88684 26.7318 3.24643 26.4799 3.56797 26.3932C3.60059 26.3841 3.63166 26.3779 3.66195 26.372L3.68214 26.3185C3.76447 26.0982 4.09688 25.8098 4.40832 25.6874C4.47939 25.6596 4.54501 25.6426 4.60559 25.6322C4.68675 25.4036 4.93645 25.1077 5.19197 24.9484C5.22925 24.9247 5.26537 24.9052 5.30071 24.8882C5.3376 24.6467 5.52439 24.3031 5.74379 24.0906C5.74923 24.0857 5.75428 24.0811 5.75933 24.0761L5.81369 23.6458Z" fill="#231F20"/>
<path fill-rule="evenodd" clip-rule="evenodd" d="M7.04722 21.4829C7.07537 21.5719 7.18231 21.9307 7.18231 22.223C7.18231 22.2946 7.17605 22.3619 7.16069 22.4208C7.1351 22.5173 7.08561 22.5818 7.01366 22.611L6.94682 22.6388C6.66754 22.7536 6.52534 22.8134 6.46761 23.0413C6.45851 23.047 6.42011 23.0681 6.40049 23.079C6.39025 23.0305 6.38428 22.9533 6.38428 22.8586C6.38428 22.6863 6.40305 22.4641 6.44855 22.28C6.47955 22.1538 6.53672 21.9923 6.63341 21.9372C6.88169 21.7927 6.89307 21.7819 6.93715 21.6411C6.93715 21.6411 6.97327 21.5352 6.97839 21.5206C6.98749 21.5149 7.02901 21.4928 7.04722 21.4829Z" fill="#231F20"/>
<path fill-rule="evenodd" clip-rule="evenodd" d="M5.26876 24.7612C5.37156 24.7045 5.52472 24.6468 5.66716 24.6903C6.03252 24.8031 6.05069 24.8016 6.17289 24.7484C6.17289 24.7484 6.27197 24.7092 6.2856 24.7038C6.29881 24.7076 6.35826 24.7273 6.38427 24.7354C6.3661 24.8339 6.26537 25.3103 6.01436 25.44C5.9322 25.4832 5.84427 25.4839 5.74477 25.4431L5.66427 25.41C5.27537 25.2498 5.07596 25.1693 4.88523 25.2725C4.87284 25.2679 4.81711 25.2498 4.78821 25.241C4.82825 25.1281 5.03509 24.889 5.26876 24.7612Z" fill="#231F20"/>
<path fill-rule="evenodd" clip-rule="evenodd" d="M4.53257 25.5143C4.64034 25.4774 4.79527 25.4463 4.92088 25.5092C5.23867 25.6666 5.2561 25.6714 5.38448 25.6389C5.38448 25.6389 5.48394 25.6182 5.49781 25.6153C5.5093 25.6208 5.5624 25.6478 5.58617 25.66C5.54972 25.7509 5.36428 26.1753 5.10355 26.2577C5.01915 26.2843 4.93356 26.2714 4.84916 26.2196L4.76912 26.1705C4.43985 25.9675 4.27105 25.8651 4.07412 25.9298C4.06223 25.9243 4.01587 25.901 3.99011 25.8881C4.04955 25.7886 4.28888 25.5971 4.53257 25.5143Z" fill="#231F20"/>
<path fill-rule="evenodd" clip-rule="evenodd" d="M2.97076 26.2923C3.12719 26.2557 3.25813 26.2665 3.34987 26.3225C3.65058 26.5075 3.66744 26.51 3.79368 26.4914C3.79368 26.4914 3.89405 26.4796 3.90777 26.4781C3.91836 26.4842 3.96775 26.5151 3.9901 26.5283C3.94384 26.6133 3.71566 27.0068 3.45063 27.0628C3.3636 27.0804 3.28362 27.061 3.2056 27.0029L3.12836 26.9451C2.82805 26.7217 2.67358 26.609 2.47324 26.6539C2.46344 26.6474 2.41874 26.6202 2.39404 26.6055C2.46383 26.5136 2.7218 26.3504 2.97076 26.2923Z" fill="#231F20"/>
<path fill-rule="evenodd" clip-rule="evenodd" d="M6.95436 23.9396C6.95436 23.9396 7.05151 23.8851 7.06467 23.877C7.0801 23.8784 7.15001 23.8858 7.18088 23.8887C7.18133 23.9024 7.18224 23.9215 7.18224 23.9499C7.18224 24.1109 7.15818 24.4709 6.95436 24.6145C6.87628 24.6694 6.78141 24.6868 6.6652 24.6672L6.55807 24.6492C6.10685 24.5737 5.87625 24.5361 5.6974 24.6665C5.68196 24.665 5.61932 24.6591 5.58618 24.6562C5.60207 24.5427 5.76685 24.2793 5.98747 24.1175C6.08461 24.0461 6.23396 23.9643 6.39647 23.9794C6.81727 24.0166 6.83634 24.0114 6.95436 23.9396Z" fill="#231F20"/>
<path fill-rule="evenodd" clip-rule="evenodd" d="M7.1276 22.2808C7.142 22.3215 7.18224 22.4477 7.18224 22.5811C7.18224 22.6948 7.15343 22.8129 7.05309 22.8872C6.98255 22.9394 6.88171 22.9652 6.75206 22.9628L6.6383 22.961C6.1341 22.9523 5.87628 22.9493 5.71236 23.0734C5.69745 23.074 5.62443 23.077 5.58767 23.0788C5.58718 23.0752 5.58618 23.0722 5.58618 23.0689C5.58618 22.9694 5.70341 22.7484 5.89615 22.5985C6.02133 22.5014 6.16192 22.4477 6.302 22.4423C6.7605 22.4241 6.78236 22.4208 6.89711 22.3464C6.89711 22.3464 6.98801 22.2925 7.00043 22.285C7.01732 22.2841 7.09382 22.282 7.1276 22.2808Z" fill="#231F20"/>
<path fill-rule="evenodd" clip-rule="evenodd" d="M6.54516 20.6496C6.49399 20.9141 6.43938 21.1947 6.38428 21.4828C6.49301 21.3678 6.6657 21.2584 6.90383 21.1063L7.00273 21.0436C7.11047 20.9738 7.1705 20.882 7.18034 20.7691C7.18132 20.7565 7.18231 20.7445 7.18231 20.7319C7.18231 20.3957 6.79116 19.9846 6.69276 19.8867L6.54516 20.6496Z" fill="#231F20"/>
<path fill-rule="evenodd" clip-rule="evenodd" d="M2.62039 27.7869C2.67015 27.8499 2.72396 27.8751 2.78481 27.8649C2.97113 27.8321 3.15502 27.4687 3.19207 27.3907C3.17801 27.3749 3.1461 27.341 3.13934 27.3333C3.12933 27.334 3.05929 27.3375 3.05929 27.3375C2.97113 27.3462 2.95978 27.3424 2.76696 27.1374C2.69097 27.0587 2.58172 27.0622 2.50357 27.0787C2.46706 27.0867 2.43028 27.0989 2.39404 27.114L2.46462 27.3417C2.4749 27.3749 2.51492 27.511 2.53737 27.6824C2.549 27.6967 2.5609 27.7117 2.57334 27.7275L2.62039 27.7869Z" fill="#231F20"/>
<path fill-rule="evenodd" clip-rule="evenodd" d="M9.86847 28.665C9.95495 28.7246 10.3251 28.9947 10.3699 29.2575C10.3729 29.2755 10.3744 29.2919 10.3744 29.3083C10.3744 29.3659 10.3562 29.4183 10.3202 29.4667L10.313 29.4759C10.0934 29.7715 9.98567 29.9151 9.98567 30.0783C9.98567 30.1111 9.99174 30.1455 10.0005 30.1815C9.99326 30.1927 9.96216 30.2387 9.94698 30.2611C9.80703 30.1823 9.65758 29.9675 9.60107 29.7603C9.58779 29.7107 9.57642 29.6511 9.57642 29.5887C9.57642 29.5199 9.59007 29.4479 9.62914 29.3847C9.79337 29.1183 9.82978 29.0371 9.82978 28.9314C9.82978 28.8994 9.82637 28.8642 9.8222 28.8214C9.8222 28.8214 9.81651 28.7602 9.81537 28.747C9.82182 28.737 9.85292 28.6894 9.86847 28.665Z" fill="#231F20"/>
<path fill-rule="evenodd" clip-rule="evenodd" d="M8.48479 27.0691C8.61145 27.1642 8.73445 27.3941 8.76886 27.6064C8.77435 27.6416 8.77838 27.6812 8.77838 27.7228C8.77838 27.8087 8.76117 27.9015 8.7048 27.9775C8.46466 28.2981 8.46466 28.3309 8.46429 28.5152C8.46429 28.5152 8.46392 28.5764 8.46356 28.5904C8.45624 28.5996 8.42219 28.6428 8.40499 28.6652C8.32775 28.5956 7.99828 28.2873 7.98108 28.0211C7.98035 28.0131 7.98035 28.0063 7.98035 27.9991C7.98035 27.9299 8.00268 27.8703 8.04917 27.8179L8.05832 27.8079C8.31567 27.5181 8.43171 27.3885 8.43171 27.2074C8.43171 27.187 8.42951 27.1642 8.42622 27.1419C8.435 27.1315 8.46795 27.0903 8.48479 27.0691Z" fill="#231F20"/>
<path fill-rule="evenodd" clip-rule="evenodd" d="M7.84161 26.271C7.92374 26.39 7.98028 26.6157 7.98028 26.8233C7.98028 26.8498 7.97927 26.8755 7.97759 26.9007C7.96951 27.0142 7.93888 27.1684 7.84026 27.258C7.56461 27.506 7.5498 27.5442 7.50907 27.7321C7.50907 27.7321 7.49493 27.7948 7.4919 27.8095C7.48349 27.817 7.44411 27.8498 7.42392 27.8671C7.37444 27.7817 7.18225 27.4303 7.18225 27.16C7.18225 27.1348 7.18393 27.1108 7.18764 27.0869C7.20009 27.0049 7.23476 26.944 7.29231 26.9015L7.30275 26.8931C7.62856 26.651 7.75376 26.5568 7.77497 26.3269C7.78473 26.3185 7.82175 26.2874 7.84161 26.271Z" fill="#231F20"/>
<path fill-rule="evenodd" clip-rule="evenodd" d="M7.96653 25.4731C7.97484 25.5172 7.98028 25.5803 7.98028 25.6625C7.98028 25.8421 7.95851 26.0867 7.90724 26.2854C7.87458 26.4116 7.81529 26.5731 7.71933 26.6244C7.46841 26.7614 7.45924 26.7747 7.41456 26.9131C7.41456 26.9131 7.37732 27.0193 7.37216 27.0335C7.36271 27.0384 7.32203 27.0594 7.3037 27.0692C7.27792 26.9792 7.18225 26.6235 7.18225 26.3294C7.18225 26.2492 7.18941 26.1738 7.20688 26.1087C7.2341 26.0094 7.28251 25.9482 7.3544 25.9213L7.41083 25.9003C7.6947 25.7961 7.83964 25.7408 7.90151 25.5064C7.91067 25.502 7.94619 25.4834 7.96653 25.4731Z" fill="#231F20"/>
<path fill-rule="evenodd" clip-rule="evenodd" d="M9.0683 27.8672C9.15022 27.9112 9.50635 28.1151 9.5675 28.3666C9.57327 28.3906 9.57635 28.4143 9.57635 28.4375C9.57635 28.4995 9.55635 28.5602 9.51635 28.6181L9.50174 28.6406C9.28175 28.9638 9.1756 29.1192 9.1756 29.2704C9.1756 29.3087 9.18368 29.3466 9.19714 29.3874C9.18983 29.3992 9.16714 29.4367 9.15138 29.4632C9.07138 29.385 8.77832 29.0808 8.77832 28.7959C8.77832 28.7323 8.79332 28.6691 8.82832 28.6096C8.99754 28.3258 9.04677 28.2329 9.04677 28.1342C9.04677 28.0943 9.03907 28.0535 9.02792 28.0005C9.02792 28.0005 9.02061 27.9638 9.01792 27.9495C9.02523 27.9373 9.05407 27.8904 9.0683 27.8672Z" fill="#231F20"/>
<path fill-rule="evenodd" clip-rule="evenodd" d="M7.88511 23.1408L7.8421 23.1186C7.7517 23.0719 7.66848 23.067 7.58764 23.1018C7.34114 23.2097 7.20774 23.6609 7.18225 23.7562C7.20654 23.7665 7.2615 23.7903 7.27384 23.7956C7.28778 23.791 7.38136 23.7604 7.38136 23.7604C7.50521 23.7149 7.52273 23.7179 7.85524 23.8538C7.89546 23.8702 7.93807 23.8764 7.98028 23.8771C7.93687 23.6349 7.90542 23.39 7.88511 23.1408Z" fill="#231F20"/>
<path fill-rule="evenodd" clip-rule="evenodd" d="M7.93334 24.6879C7.74534 24.8142 7.50162 24.7762 7.02726 24.6991L6.92647 24.683C6.80388 24.663 6.70456 24.6807 6.62267 24.7356C6.40899 24.8797 6.38428 25.241 6.38428 25.4013C6.38428 25.4283 6.38476 25.4475 6.38525 25.4614C6.41771 25.4644 6.48991 25.4716 6.5059 25.4731C6.52043 25.4652 6.62025 25.4107 6.62025 25.4107C6.74477 25.3366 6.76464 25.3321 7.20653 25.3704C7.37661 25.3851 7.53359 25.3035 7.63535 25.2316C7.78313 25.1279 7.90669 24.9823 7.98034 24.862C7.96386 24.8041 7.94836 24.7462 7.93334 24.6879Z" fill="#231F20"/>
<path fill-rule="evenodd" clip-rule="evenodd" d="M10.9783 31.0593C10.9987 31.0495 11.0231 31.0377 11.0231 31.0377C11.1076 30.9962 11.1554 30.9402 11.1687 30.8657C11.1713 30.8512 11.1724 30.8367 11.1724 30.8216C11.1724 30.5991 10.9079 30.3192 10.8508 30.2612C10.8297 30.2737 10.7823 30.3014 10.7719 30.3074C10.7686 30.3192 10.7438 30.4008 10.7438 30.4008C10.7171 30.5063 10.7082 30.5188 10.424 30.6881C10.4055 30.6999 10.3896 30.713 10.3744 30.7275C10.583 30.8428 10.786 30.9547 10.9783 31.0593Z" fill="#231F20"/>
<path fill-rule="evenodd" clip-rule="evenodd" d="M9.65618 30.9034C9.7222 30.9557 9.78787 31.0079 9.85354 31.0592C9.86764 30.8692 9.99761 30.7218 10.228 30.4612L10.284 30.3972C10.3445 30.3274 10.3744 30.2515 10.3744 30.1638C10.3744 30.1563 10.3741 30.1475 10.3738 30.1401C10.3559 29.8426 10.0145 29.5272 9.94156 29.4631C9.92575 29.4846 9.88999 29.5316 9.88208 29.5417C9.88174 29.5583 9.87933 29.668 9.87933 29.668C9.87933 29.6746 9.87933 29.6807 9.87933 29.6869C9.87933 29.8119 9.86523 29.8409 9.65928 30.1221C9.59395 30.2103 9.57642 30.3353 9.57642 30.4441C9.57642 30.4731 9.57779 30.5016 9.57951 30.5279C9.58914 30.6551 9.61905 30.7876 9.65618 30.9034Z" fill="#231F20"/>
<path fill-rule="evenodd" clip-rule="evenodd" d="M8.02139 24.8029C8.04074 24.8797 8.05042 24.9785 8.05042 25.0881C8.05042 25.2645 8.02579 25.4667 7.98035 25.6411C8.11169 25.8316 8.18968 26.184 8.17209 26.504C8.29903 26.614 8.4119 26.8296 8.47523 27.0691L8.77838 26.877C8.47142 26.2022 8.23248 25.4627 8.07416 24.675C8.07622 24.6852 8.07798 24.6945 8.08003 24.705C8.06126 24.739 8.04162 24.7713 8.02139 24.8029Z" fill="#231F20"/>
<mask id="mask2_102_2709" style="mask-type:alpha" maskUnits="userSpaceOnUse" x="2" y="4" width="29" height="32">
<path d="M2.57422 4.72266H30.2466V35.0492H2.57422V4.72266Z" fill="#231F20"/>
</mask>
<g mask="url(#mask2_102_2709)">
<path fill-rule="evenodd" clip-rule="evenodd" d="M30.2434 9.26409C30.2434 9.26409 30.2669 9.12004 30.0815 9.02069C30.0706 9.0147 30.0224 8.99076 29.9426 8.95046C28.4238 8.31244 24.4779 6.27028 22.6535 5.31743C22.022 5.00301 21.618 4.80151 21.618 4.80151C21.5779 4.78714 21.1367 4.62355 20.8764 4.81468C20.8468 4.83622 20.0336 5.37609 20.0336 5.37609C20.0336 5.37609 20.0016 5.39963 20.0089 5.4519C20.0312 5.62467 20.1113 6.16933 19.9531 6.28624C19.762 6.42709 18.1311 6.73992 18.1311 6.73992L17.9299 7.03998L17.4984 6.84486C17.4024 6.80416 17.3004 6.78062 17.1268 6.85763L16.4289 7.21714L15.7294 6.85763C15.5557 6.78062 15.4541 6.80416 15.3578 6.84486L14.9263 7.03998L14.7255 6.73992C14.7255 6.73992 13.0942 6.42709 12.9035 6.28624C12.7448 6.16933 12.825 5.62467 12.8476 5.4519C12.8545 5.39963 12.8225 5.37609 12.8225 5.37609C12.8225 5.37609 12.0093 4.83622 11.9798 4.81468C11.7195 4.62355 11.2782 4.78714 11.2382 4.80151C11.2382 4.80151 10.8342 5.00301 10.2027 5.31743C8.37827 6.27028 4.4323 8.31244 2.9135 8.95046C2.83375 8.99076 2.78599 9.0147 2.77465 9.02069C2.58926 9.12004 2.61274 9.26409 2.61274 9.26409L2.6095 9.32394C3.6134 10.0458 4.02669 10.268 5.33217 10.286L5.67624 10.2864C5.9851 10.2832 6.34011 10.2724 6.75382 10.2564C6.82304 10.2397 6.89428 10.2145 6.95581 10.1758C7.39947 9.89892 10.3347 7.90026 10.397 7.86195C10.4945 7.8021 10.5864 7.77616 10.6281 7.79252C10.6496 7.7997 10.7301 7.842 10.7435 7.85038C10.7569 7.85836 10.8904 7.94295 10.8415 8.0048C10.7981 8.05986 8.31512 10.2935 8.31512 10.2935C8.31512 10.2935 9.39957 10.2935 9.41819 10.2935C9.436 10.2935 9.86752 10.3227 10.1808 10.0669C10.4533 9.84346 11.5175 8.8152 11.5729 8.76771C11.6519 8.70028 11.7389 8.70427 11.7834 8.71066C11.8846 8.72582 12.021 8.82078 12.021 8.82078C12.021 8.82078 12.0882 8.85191 12.0433 8.91734C11.9984 8.98159 10.7726 10.6215 10.7726 10.6215C10.7726 10.6215 10.8135 10.9854 11.7814 11.171C12.1477 11.24 12.7339 11.2145 13.3941 11.2153C13.3941 11.2153 13.8192 10.0266 13.8608 9.92286C13.8916 9.84585 13.9491 9.85982 13.9693 9.86181C13.99 9.86421 14.0641 9.869 14.2393 9.92206C14.309 9.946 14.3268 10.0497 14.3478 10.1511L14.7429 11.5776C14.7542 11.6394 14.7235 11.8393 14.5045 12.2024C14.2252 12.5791 12.8104 14.4872 12.7452 14.551C12.6736 14.6225 12.8019 14.7657 12.8444 14.8196L13.0253 15.0295C13.148 15.1938 13.2294 15.195 13.3204 15.1911H13.3208C13.3281 15.1883 13.3354 15.1855 13.3427 15.1827C13.6621 15.0586 13.9912 14.9532 14.3284 14.8679L15.1671 13.4166C15.2117 13.3512 15.2821 13.3771 15.2821 13.3771C15.2821 13.3771 15.444 13.4226 15.5363 13.4773C15.5784 13.5024 15.6011 13.5886 15.5833 13.6592C15.5723 13.7015 15.4428 14.247 15.3412 14.6755C15.6537 14.636 15.9719 14.6129 16.2945 14.6077C16.709 14.6009 17.1166 14.6249 17.5162 14.6755C17.4769 14.5127 17.283 13.6979 17.2729 13.6592C17.2555 13.5886 17.2777 13.5024 17.3198 13.4773C17.4121 13.4226 17.5741 13.3771 17.5741 13.3771C17.5741 13.3771 17.6445 13.3512 17.689 13.4166L18.5282 14.8683C18.8467 14.9489 19.1576 15.0478 19.46 15.1635C19.4851 15.1727 19.5102 15.1811 19.5353 15.1911H19.5357C19.6268 15.195 19.7086 15.1938 19.8308 15.0295L20.0121 14.8196C20.0547 14.7657 20.183 14.6225 20.1109 14.551C20.0457 14.4872 18.631 12.5791 18.3517 12.2024C18.1327 11.8393 18.1019 11.6394 18.1132 11.5776L18.5083 10.1511C18.5294 10.0497 18.5472 9.946 18.6172 9.92206C18.7921 9.869 18.8662 9.86421 18.8868 9.86181C18.9071 9.85982 18.9645 9.84585 18.9953 9.92286C19.037 10.0266 19.462 11.2153 19.462 11.2153C20.1227 11.2145 20.7084 11.24 21.0747 11.171C22.0426 10.9854 22.0835 10.6215 22.0835 10.6215C22.0835 10.6215 20.8578 8.98159 20.8128 8.91734C20.7679 8.85191 20.8351 8.82078 20.8351 8.82078C20.8351 8.82078 20.9719 8.72582 21.0727 8.71066C21.1177 8.70427 21.2043 8.70028 21.2832 8.76771C21.3387 8.8152 22.4029 9.84346 22.6753 10.0669C22.9886 10.3227 23.4201 10.2935 23.438 10.2935C23.4566 10.2935 24.5414 10.2935 24.5414 10.2935C24.5414 10.2935 22.058 8.05986 22.0147 8.0048C21.9657 7.94295 22.0993 7.85836 22.1126 7.85038C22.126 7.842 22.2066 7.7997 22.228 7.79252C22.2697 7.77616 22.3616 7.8021 22.4592 7.86195C22.5215 7.90026 25.4567 9.89892 25.9003 10.1758C25.9619 10.2145 26.0331 10.2397 26.1027 10.2564C26.5164 10.2724 26.871 10.2832 27.1803 10.2864L27.524 10.286C28.8295 10.268 29.2428 10.0458 30.2466 9.32394L30.2434 9.26409Z" fill="#231F20"/>
<path fill-rule="evenodd" clip-rule="evenodd" d="M16.5859 32.486C14.7987 32.3363 13.0326 31.4972 11.9562 31.0256C11.9121 31.004 11.8522 30.9813 11.8336 30.9749C11.8275 31.0639 11.8615 31.2869 11.8927 31.3883C11.9323 31.5152 12.1525 32.3132 12.3161 32.3499C12.5505 32.4022 13.7636 32.6851 14.6437 32.6193C14.7048 32.8032 14.6008 32.9357 13.9272 33.0075C13.2536 33.0809 11.8805 33.0346 11.8392 33.0171C11.8323 32.9225 11.8145 32.243 11.5984 32.1145C11.4636 32.0343 11.3203 31.9493 11.1709 31.8603C11.1001 31.8184 11.0272 31.7753 10.9539 31.7318C10.9207 31.7123 10.8875 31.6919 10.8544 31.6724C10.8454 31.6672 10.8369 31.6624 10.8284 31.6568C9.22383 30.7048 7.1711 29.4599 7.10512 28.8302C7.08164 28.6143 7.18284 28.3107 7.35043 28.1619L7.23182 28.0082C7.16058 27.9161 6.82297 27.4532 6.86629 27.045C6.86548 27.0426 6.86022 27.031 6.85536 27.0207H6.85495L6.73878 26.8C6.68089 26.6919 6.40968 26.14 6.57564 25.7402L6.38701 25.8196C6.27204 25.8548 6.12429 25.8356 5.98504 25.7857C5.87008 25.8416 5.74297 25.8595 5.61506 25.8384C5.5345 26.0379 5.30984 26.5071 4.93621 26.632C4.84756 26.6616 4.75608 26.6699 4.6654 26.6584C4.56501 26.8487 4.29339 27.2968 3.90762 27.383C3.80723 27.4057 3.70603 27.4017 3.60929 27.3746C3.50363 27.5414 3.18222 27.9935 2.775 28.0481C2.70699 28.0573 2.63939 28.0541 2.57422 28.041L2.58272 28.0565C2.61227 28.1096 2.76204 28.3917 2.79605 28.7041L2.98549 28.9886C3.01909 29.0393 3.19558 29.315 3.25145 29.6298L3.46518 29.892C3.60726 30.0672 3.77201 30.3477 3.81492 30.633L3.9651 30.7148C4.10516 30.791 4.23713 30.9322 4.33671 31.1006C5.43168 31.7075 7.11038 32.5339 8.98014 33.1212C9.59381 33.3147 10.2281 33.4823 10.8693 33.6084C11.2381 33.6802 11.6089 33.7393 11.9797 33.7808C11.9797 33.7808 12.0445 33.7712 12.0161 33.9272C11.9773 34.1307 11.7486 34.9315 11.7368 34.9754C11.8113 34.9958 14.0652 35.5763 16.4321 33.1212C16.7595 32.7801 16.8199 32.6623 16.9093 32.5031C16.7344 32.4972 16.6336 32.4892 16.5859 32.486Z" fill="#231F20"/>
</g>
</svg>
