<svg width="159" height="20" viewBox="0 0 159 20" fill="none" xmlns="http://www.w3.org/2000/svg">
<g clip-path="url(#clip0_1155_2487)">
<path d="M59.2699 9.9652C58.9842 10.8757 58.67 11.9468 58.5343 12.5252C58.4022 11.9682 58.0809 10.8578 57.7988 9.9652L56.085 4.55237H52.7002L56.9098 16.2456H60.0732L64.2828 4.55237H60.9873L59.2734 9.9652H59.2699Z" fill="#282E3E"/>
<path d="M47.3695 4.30603C46.1448 4.30603 45.1665 4.77376 44.6345 5.33075V4.55239H41.5603V16.2457H44.6345V9.85097C44.6345 7.82294 45.37 7.20168 46.6375 7.20168C47.905 7.20168 48.6191 7.82651 48.6191 9.9188V16.2457H51.6897V9.65102C51.6897 6.35548 50.3544 4.30603 47.3695 4.30603Z" fill="#282E3E"/>
<path d="M35.8154 16.2456H38.8896V0L35.8154 1.53887V16.2456Z" fill="#282E3E"/>
<path d="M27.8782 12.2396L26.1715 11.6683L22.7582 9.39036L19.3412 5.96629V3.68476L17.0668 1.4068V0.267822H15.9279L13.0858 0.839097L11.3791 3.68476L10.2401 5.96986L7.96571 8.25139V9.39036L6.25903 11.097L5.69133 10.5293L1.13898 12.8109L0 13.375V15.678L1.24252 16.3028L3.41337 15.2067L6.25903 15.6601V16.7991V17.9381L7.96928 18.5093L10.2401 16.2314H11.9468V17.3668L11.3791 18.5058L12.1753 19.6483L14.796 18.5093L14.2247 16.7991L14.7924 13.9499H15.9314L15.9279 15.0888L17.6381 15.6601L18.2094 17.3704L19.3448 18.5129L20.4802 17.3739L23.8936 16.2278L22.7546 15.0888L21.6192 12.8109H20.4802L21.0515 14.5211L21.6192 15.0888L20.4802 16.2314H19.3448L18.2058 13.9499V12.8109L15.9279 10.5258L17.0668 9.38679L14.796 7.10884L15.9279 5.96986V3.68833L17.0668 2.54935L18.7771 4.2596L18.2058 5.96629L19.3412 7.10527L21.6192 10.5293L23.8936 11.6683L26.7392 14.5176L28.4459 15.0888V16.2314H29.5849L30.7203 15.0888L28.4459 13.9463L27.8782 12.2396Z" fill="#282E3E"/>
<path d="M70.3561 4.30603C67.2819 4.30603 64.7861 6.82321 64.7861 10.408C64.7861 13.9927 67.2212 16.4885 70.6346 16.4885C71.8735 16.4885 73.898 16.0207 75.1691 14.2819L72.809 12.5574C72.2163 13.325 71.3237 13.5928 70.6346 13.5928C69.417 13.5928 68.1495 12.9109 67.9353 11.3863H75.6332C75.6689 11.0185 75.6797 10.8543 75.6797 10.408C75.6797 7.06957 73.6159 4.30603 70.3561 4.30603ZM67.9853 9.0726C68.1852 7.89078 69.085 6.97674 70.2454 6.97674C71.7236 6.97674 72.4484 7.94434 72.609 9.0726H67.9853Z" fill="#282E3E"/>
<path d="M123.767 1.396C119.768 1.396 117.436 4.49873 117.436 8.9154C117.436 13.3321 119.768 16.4348 123.767 16.4348C124.581 16.4348 125.266 16.3098 125.934 16.0385L126.977 17.5595L129.205 16.1027L128.123 14.521C129.372 13.2107 130.101 11.3148 130.101 8.91897C130.101 4.5023 127.769 1.39957 123.77 1.39957L123.767 1.396ZM126.495 12.1217L125.559 10.7256L123.331 12.1824L124.309 13.6391C124.163 13.6605 123.995 13.682 123.831 13.682C121.457 13.682 120.435 11.5575 120.435 8.91183C120.435 6.26611 121.392 4.28807 123.767 4.28807C126.141 4.28807 127.098 6.30896 127.098 8.91183C127.098 10.1401 126.93 11.3076 126.495 12.1181V12.1217Z" fill="#282E3E"/>
<path d="M106.539 4.30603C103.176 4.30603 100.444 7.04458 100.444 10.408C100.444 13.7713 103.172 16.4885 106.539 16.4885C109.906 16.4885 112.63 13.7713 112.63 10.408C112.63 7.04458 109.903 4.30603 106.539 4.30603ZM106.539 13.525C104.807 13.525 103.565 12.1361 103.565 10.408C103.565 8.67985 104.811 7.26595 106.539 7.26595C108.267 7.26595 109.51 8.67985 109.51 10.408C109.51 12.1361 108.264 13.525 106.539 13.525Z" fill="#282E3E"/>
<path d="M82.8849 8.94761C82.0101 8.74052 80.3284 8.58699 80.3284 7.76935C80.3284 7.28734 80.8319 6.93743 82.1672 6.93743C82.867 6.93743 83.9917 7.29448 84.9557 7.78006L86.5303 5.66992C85.3735 4.93797 83.6811 4.30957 82.2136 4.30957C79.6072 4.30957 77.3364 5.7199 77.3364 7.93359C77.3364 10.8971 80.0321 11.3327 82.3386 11.7647C82.9063 11.8718 84.1488 12.0111 84.1488 12.8323C84.1488 13.3964 83.4597 13.8641 82.3029 13.8641C81.0068 13.8641 79.8285 13.3643 78.7217 12.793L77.2007 14.8674C78.4503 15.6922 80.2749 16.492 82.1244 16.492C84.6237 16.492 87.1587 15.1317 87.1587 12.693C87.1587 10.058 85.0271 9.45461 82.8884 8.95118L82.8849 8.94761Z" fill="#282E3E"/>
<path d="M138.22 1.396C134.221 1.396 131.889 4.49873 131.889 8.9154C131.889 13.3321 134.221 16.4348 138.22 16.4348C139.034 16.4348 139.719 16.3098 140.387 16.0385L141.43 17.5595L143.658 16.1027L142.576 14.521C143.825 13.2107 144.554 11.3148 144.554 8.91897C144.554 4.5023 142.222 1.39957 138.223 1.39957L138.22 1.396ZM140.948 12.1217L140.012 10.7256L137.784 12.1824L138.763 13.6391C138.616 13.6605 138.448 13.682 138.284 13.682C135.91 13.682 134.889 11.5575 134.889 8.91183C134.889 6.26611 135.845 4.28807 138.22 4.28807C140.594 4.28807 141.551 6.30896 141.551 8.91183C141.551 10.1401 141.383 11.3076 140.948 12.1181V12.1217Z" fill="#282E3E"/>
<path d="M94.578 7.26952C95.6778 7.26952 96.5704 7.83722 97.0809 8.6977L99.5517 6.88748C98.4484 5.32718 96.6311 4.30603 94.578 4.30603C91.2147 4.30603 88.4868 7.04458 88.4868 10.408C88.4868 13.7713 91.2147 16.4885 94.578 16.4885C96.6204 16.4885 98.4342 15.4852 99.5374 13.9427L97.0702 12.1468C96.5525 12.9787 95.6599 13.5285 94.578 13.5285C92.8499 13.5285 91.6074 12.1396 91.6074 10.4115C91.6074 8.68342 92.8535 7.27309 94.578 7.27309V7.26952Z" fill="#282E3E"/>
<path d="M159 8.9154C159 4.49873 156.668 1.396 152.67 1.396C148.671 1.396 146.339 4.49873 146.339 8.9154C146.339 13.3321 148.671 16.4348 152.67 16.4348C153.484 16.4348 154.169 16.3098 154.837 16.0385L155.879 17.5595L158.107 16.1027L157.026 14.521C158.275 13.2107 159.004 11.3148 159.004 8.91897L159 8.9154ZM155.397 12.1217L154.462 10.7256L152.234 12.1824L153.212 13.6391C153.066 13.6605 152.898 13.682 152.734 13.682C150.359 13.682 149.338 11.5575 149.338 8.91183C149.338 6.26611 150.295 4.28807 152.67 4.28807C155.044 4.28807 156.001 6.30896 156.001 8.91183C156.001 10.1401 155.833 11.3076 155.397 12.1181V12.1217Z" fill="#282E3E"/>
</g>
<defs>
<clipPath id="clip0_1155_2487">
<rect width="159" height="19.6483" fill="white"/>
</clipPath>
</defs>
</svg>
