<svg width="64" height="64" viewBox="0 0 64 64" fill="none" xmlns="http://www.w3.org/2000/svg">
<rect x="1" y="1" width="62" height="62" rx="14" fill="#E372FF" stroke="#D9DDE8" stroke-width="2"/>
<path d="M39.9216 42.9988C39.4777 42.9988 39.1069 42.6548 39.0853 42.2129L38.7767 35.8162C38.7671 35.5876 37.8292 34.8771 34.8946 34.572C32.7699 34.3516 30.2887 34.4105 28.2585 34.7298C25.7258 35.1281 25.0679 35.7455 25.0308 35.8881C25.0284 35.9022 25.026 35.9163 25.0224 35.9305C24.7101 37.2784 24.6168 39.3239 24.569 42.187C24.5618 42.6383 24.1885 42.9976 23.7315 42.9976C23.7268 42.9976 23.722 42.9976 23.7172 42.9976C23.2542 42.9906 22.8857 42.6147 22.8941 42.1599C22.9444 39.1271 23.0413 37.0757 23.3846 35.5817C23.9134 32.814 31.2828 32.6703 34.0858 32.8494C39.2588 33.1804 40.4013 34.6049 40.4491 35.7431L40.7578 42.1352C40.7793 42.59 40.4228 42.9764 39.961 42.9976C39.9479 42.9976 39.9335 42.9976 39.9204 42.9976L39.9216 42.9988ZM52.1637 42.9988C51.7079 42.9988 51.3346 42.6383 51.3262 42.1882C51.2784 39.325 51.1863 37.2808 50.8728 35.9317C50.8692 35.9175 50.8668 35.9022 50.8644 35.8881C50.8333 35.7702 50.3034 35.2436 48.2816 34.8441C46.621 34.5166 44.4987 34.3799 42.4566 34.4671C41.9912 34.4895 41.6036 34.1336 41.5833 33.6788C41.5629 33.224 41.9218 32.8387 42.3836 32.8187C44.5909 32.7233 46.889 32.8776 48.6883 33.2417C51.0511 33.7189 52.3012 34.4848 52.5094 35.5817C52.8527 37.0746 52.9496 39.1259 52.9999 42.1599C53.0071 42.6159 52.6386 42.9906 52.1768 42.9976C52.172 42.9976 52.1672 42.9976 52.1625 42.9976L52.1637 42.9988ZM11.8376 42.9988C11.8376 42.9988 11.828 42.9988 11.8232 42.9988C11.3602 42.9918 10.9918 42.6159 11.0001 42.1611C11.0504 39.1271 11.1473 37.0757 11.4906 35.5829C11.9775 33.0449 18.3935 32.6691 21.7289 32.8258C22.1907 32.847 22.5472 33.2335 22.5256 33.6894C22.5041 34.1443 22.1105 34.4954 21.6487 34.4742C19.5958 34.3775 17.4496 34.5095 15.7628 34.8371C13.7063 35.2365 13.1679 35.7691 13.1356 35.8904C13.1332 35.9046 13.1308 35.9187 13.1272 35.9328C12.815 37.2808 12.7217 39.3262 12.6738 42.1894C12.6666 42.6406 12.2934 43 11.8364 43L11.8376 42.9988ZM48.7792 42.9988C48.321 42.9988 47.9478 42.6359 47.9418 42.1835L47.9035 38.9079C47.8987 38.4519 48.2684 38.0784 48.7314 38.0737H48.7409C49.1991 38.0737 49.5724 38.4366 49.5784 38.8891L49.6167 42.1646C49.6214 42.6206 49.2518 42.9941 48.7888 42.9988H48.7792ZM36.6795 42.9988C36.2213 42.9988 35.848 42.6359 35.8421 42.1835L35.8038 38.9079C35.799 38.4519 36.1686 38.0784 36.6316 38.0737H36.6412C37.0994 38.0737 37.4727 38.4366 37.4786 38.8891L37.5169 42.1646C37.5217 42.6206 37.152 42.9941 36.6891 42.9988H36.6795ZM27.1196 42.9988H27.11C26.647 42.9941 26.2773 42.6206 26.2821 42.1646L26.3204 38.8891C26.3252 38.4366 26.6997 38.0737 27.1579 38.0737H27.1674C27.6304 38.0784 28.0001 38.4519 27.9953 38.9079L27.957 42.1835C27.9522 42.6359 27.5778 42.9988 27.1196 42.9988ZM15.2232 42.9988H15.2136C14.7507 42.9941 14.381 42.6206 14.3858 42.1646L14.4241 38.8891C14.4288 38.4331 14.8141 38.0702 15.2711 38.0737C15.734 38.0784 16.1037 38.4519 16.0989 38.9079L16.0606 42.1835C16.0559 42.6359 15.6814 42.9988 15.2232 42.9988ZM44.0489 31.9339C43.2474 31.9339 42.4602 31.7123 41.7735 31.2941C40.3893 30.4752 39.5304 28.9482 39.5304 27.3069C39.5304 24.7713 41.5354 22.7093 43.9987 22.7093C44.8014 22.7093 45.5886 22.9308 46.2753 23.3503C47.6583 24.1692 48.5172 25.6962 48.5172 27.3375C48.5172 29.8731 46.5134 31.935 44.0489 31.935V31.9339ZM43.9987 24.3577C42.4578 24.3577 41.2052 25.6797 41.2052 27.3057C41.2052 28.3732 41.7543 29.3594 42.6396 29.8813C42.6432 29.8837 42.648 29.886 42.6516 29.8884C43.0751 30.1476 43.5584 30.2843 44.0489 30.2843C45.5886 30.2843 46.8424 28.9623 46.8424 27.3363C46.8424 26.2688 46.2932 25.2826 45.4091 24.7606C45.4056 24.7583 45.4008 24.7559 45.3972 24.7536C44.9749 24.4944 44.4904 24.3577 43.9987 24.3577ZM31.7362 31.5003C29.273 31.5003 27.2679 29.377 27.2679 26.766C27.2679 25.0811 28.1221 23.5117 29.4979 22.6669C30.1882 22.2309 30.9789 22 31.7865 22C34.2497 22 36.2548 24.1232 36.2548 26.7342C36.2548 28.4191 35.3994 29.9897 34.0224 30.8334C33.3321 31.2693 32.5426 31.4991 31.7362 31.4991V31.5003ZM31.7865 23.6507C31.2996 23.6507 30.8198 23.7921 30.3999 24.0584L30.388 24.0655C29.4967 24.6098 28.9428 25.6455 28.9428 26.766C28.9428 28.4663 30.1953 29.8507 31.7362 29.8507C32.2231 29.8507 32.7017 29.7105 33.1228 29.443C33.1264 29.4407 33.1312 29.4383 33.1347 29.436C34.026 28.8916 34.5799 27.8559 34.5799 26.7354C34.5799 25.0352 33.3274 23.6507 31.7865 23.6507ZM19.9523 31.5003C17.4891 31.5003 15.484 29.377 15.484 26.766C15.484 25.0811 16.3382 23.5117 17.714 22.6669C18.4043 22.2309 19.195 22 20.0014 22C22.4658 22 24.4697 24.1232 24.4697 26.7342C24.4697 28.4191 23.6143 29.9897 22.2373 30.8334C21.547 31.2693 20.7575 31.4991 19.9511 31.4991L19.9523 31.5003ZM20.0026 23.6507C19.5157 23.6507 19.0359 23.7921 18.616 24.0584C18.6124 24.0608 18.6076 24.0631 18.604 24.0655C17.7128 24.6098 17.1589 25.6455 17.1589 26.766C17.1589 28.4663 18.4114 29.8507 19.9523 29.8507C20.4392 29.8507 20.9178 29.7105 21.3389 29.443C21.3425 29.4407 21.3472 29.4383 21.3508 29.436C22.2421 28.8916 22.796 27.8559 22.796 26.7354C22.796 25.0352 21.5434 23.6507 20.0026 23.6507Z" fill="#0A092D"/>
</svg>
